<svg width="20" height="20" viewBox="0 0 20 20" fill="none" xmlns="http://www.w3.org/2000/svg">
<rect x="0.5" y="0.5" width="19" height="19" rx="9.5" fill="white"/>
<rect x="0.5" y="0.5" width="19" height="19" rx="9.5" stroke="black"/>
<path d="M11.8078 11.6701L9.3407 9.1669C8.95303 8.77354 8.95764 8.14039 9.351 7.75272C9.74435 7.36505 10.3775 7.36966 10.7652 7.76302L13.2322 10.2663C13.6199 10.6596 13.6153 11.2928 13.2219 11.6804C12.8286 12.0681 12.1954 12.0635 11.8078 11.6701Z" fill="black" fill-opacity="0.85"/>
<path d="M10.6762 9.12625L8.11612 11.6493C7.72276 12.037 7.08961 12.0323 6.70194 11.639C6.31427 11.2456 6.31888 10.6125 6.71223 10.2248L9.27227 7.70178C9.66563 7.31411 10.2988 7.31872 10.6864 7.71207C11.0741 8.10543 11.0695 8.73858 10.6762 9.12625Z" fill="black" fill-opacity="0.85"/>
</svg>
