<svg width="166" height="40" viewBox="0 0 166 40" fill="none" xmlns="http://www.w3.org/2000/svg">
<g opacity="0.8">
<rect x="0.5" y="0.449219" width="165" height="39" rx="8" fill="#D5D2D2"/>
<path d="M16.5568 24.4492V15.7219H19.5057C20.1903 15.7219 20.75 15.8455 21.1847 16.0927C21.6222 16.337 21.946 16.668 22.1562 17.0856C22.3665 17.5032 22.4716 17.9691 22.4716 18.4833C22.4716 18.9975 22.3665 19.4648 22.1562 19.8853C21.9489 20.3058 21.6278 20.641 21.1932 20.891C20.7585 21.1381 20.2017 21.2617 19.5227 21.2617H17.4091V20.3242H19.4886C19.9574 20.3242 20.3338 20.2433 20.6179 20.0813C20.902 19.9194 21.108 19.7006 21.2358 19.4251C21.3665 19.1467 21.4318 18.8327 21.4318 18.4833C21.4318 18.1339 21.3665 17.8214 21.2358 17.5458C21.108 17.2702 20.9006 17.0543 20.6136 16.8981C20.3267 16.739 19.946 16.6594 19.4716 16.6594H17.6136V24.4492H16.5568ZM25.9638 24.6026C25.549 24.6026 25.1726 24.5245 24.8345 24.3683C24.4964 24.2092 24.228 23.9805 24.0291 23.6822C23.8303 23.381 23.7308 23.0174 23.7308 22.5913C23.7308 22.2163 23.8047 21.9123 23.9524 21.6793C24.1001 21.4435 24.2976 21.2589 24.5447 21.1254C24.7919 20.9918 25.0646 20.8924 25.3629 20.8271C25.6641 20.7589 25.9666 20.7049 26.2706 20.6651C26.6683 20.614 26.9908 20.5756 27.2379 20.5501C27.4879 20.5217 27.6697 20.4748 27.7834 20.4094C27.8999 20.3441 27.9581 20.2305 27.9581 20.0685V20.0344C27.9581 19.614 27.843 19.2873 27.6129 19.0543C27.3857 18.8214 27.0405 18.7049 26.5774 18.7049C26.0973 18.7049 25.7209 18.81 25.4482 19.0202C25.1754 19.2305 24.9837 19.4549 24.8729 19.6935L23.9183 19.3526C24.0888 18.9549 24.3161 18.6452 24.6001 18.4237C24.8871 18.1992 25.1996 18.043 25.5376 17.9549C25.8786 17.864 26.2138 17.8185 26.5433 17.8185C26.7536 17.8185 26.995 17.8441 27.2678 17.8952C27.5433 17.9435 27.8089 18.0444 28.0646 18.1978C28.3232 18.3512 28.5376 18.5827 28.7081 18.8924C28.8786 19.2021 28.9638 19.6168 28.9638 20.1367V24.4492H27.9581V23.5629H27.907C27.8388 23.7049 27.7251 23.8569 27.5661 24.0188C27.407 24.1808 27.1953 24.3185 26.9311 24.4322C26.6669 24.5458 26.3445 24.6026 25.9638 24.6026ZM26.1172 23.6992C26.5149 23.6992 26.8501 23.6211 27.1229 23.4648C27.3984 23.3086 27.6058 23.1069 27.745 22.8597C27.8871 22.6126 27.9581 22.3526 27.9581 22.0799V21.1594C27.9155 21.2106 27.8217 21.2575 27.6768 21.3001C27.5348 21.3398 27.37 21.3754 27.1825 21.4066C26.9979 21.435 26.8175 21.4606 26.6413 21.4833C26.468 21.5032 26.3274 21.5202 26.2195 21.5344C25.9581 21.5685 25.7138 21.6239 25.4865 21.7006C25.2621 21.7745 25.0803 21.8867 24.9411 22.0373C24.8047 22.185 24.7365 22.3867 24.7365 22.6424C24.7365 22.9918 24.8658 23.256 25.1243 23.435C25.3857 23.6112 25.7166 23.6992 26.1172 23.6992ZM31.2127 26.9038C31.0423 26.9038 30.8903 26.8896 30.7567 26.8612C30.6232 26.8356 30.5309 26.81 30.4798 26.7844L30.7354 25.8981C30.9798 25.9606 31.1957 25.9833 31.3832 25.9663C31.5707 25.9492 31.7369 25.8654 31.8817 25.7148C32.0295 25.5671 32.1644 25.3271 32.2866 24.9947L32.4741 24.4833L30.0536 17.9038H31.1445L32.9513 23.1197H33.0195L34.8263 17.9038H35.9173L33.1388 25.4038C33.0138 25.7418 32.859 26.0217 32.6744 26.2433C32.4897 26.4677 32.2752 26.6339 32.0309 26.7418C31.7894 26.8498 31.5167 26.9038 31.2127 26.9038ZM39.7546 24.5856C39.1239 24.5856 38.5799 24.4464 38.1225 24.168C37.668 23.8867 37.3171 23.4947 37.07 22.9918C36.8256 22.4862 36.7035 21.8981 36.7035 21.2276C36.7035 20.5572 36.8256 19.9663 37.07 19.4549C37.3171 18.9407 37.6609 18.5401 38.1012 18.2532C38.5444 17.9634 39.0614 17.8185 39.6523 17.8185C39.9933 17.8185 40.3299 17.8754 40.6623 17.989C40.9947 18.1026 41.2972 18.2873 41.57 18.543C41.8427 18.7958 42.06 19.131 42.2219 19.5487C42.3839 19.9663 42.4648 20.4805 42.4648 21.0913V21.5174H37.4194V20.6481H41.4421C41.4421 20.2788 41.3683 19.9492 41.2205 19.6594C41.0756 19.3697 40.8683 19.141 40.5984 18.9734C40.3313 18.8058 40.016 18.7219 39.6523 18.7219C39.2518 18.7219 38.9052 18.8214 38.6126 19.0202C38.3228 19.2163 38.0998 19.4719 37.9435 19.7873C37.7873 20.1026 37.7092 20.4407 37.7092 20.8015V21.381C37.7092 21.8754 37.7944 22.2944 37.9648 22.6381C38.1381 22.979 38.3782 23.239 38.685 23.418C38.9918 23.5941 39.3484 23.6822 39.7546 23.6822C40.0188 23.6822 40.2575 23.6452 40.4705 23.5714C40.6864 23.4947 40.8725 23.381 41.0288 23.2305C41.185 23.0771 41.3058 22.8867 41.391 22.6594L42.3626 22.9322C42.2603 23.2617 42.0884 23.5515 41.8469 23.8015C41.6055 24.0487 41.3072 24.2418 40.9521 24.381C40.5969 24.5174 40.1978 24.5856 39.7546 24.5856ZM43.9947 24.4492V17.9038H44.9663V18.8924H45.0344C45.1538 18.5685 45.3697 18.3058 45.6822 18.104C45.9947 17.9023 46.3469 17.8015 46.739 17.8015C46.8129 17.8015 46.9052 17.8029 47.016 17.8058C47.1268 17.8086 47.2106 17.8129 47.2674 17.8185V18.8413C47.2333 18.8327 47.1552 18.82 47.033 18.8029C46.9137 18.783 46.7873 18.7731 46.6538 18.7731C46.3356 18.7731 46.0515 18.8398 45.8015 18.9734C45.5543 19.104 45.3583 19.2859 45.2134 19.5188C45.0714 19.7489 45.0004 20.0117 45.0004 20.3072V24.4492H43.9947ZM53.7607 24.6026C53.3459 24.6026 52.9695 24.5245 52.6314 24.3683C52.2933 24.2092 52.0249 23.9805 51.826 23.6822C51.6271 23.381 51.5277 23.0174 51.5277 22.5913C51.5277 22.2163 51.6016 21.9123 51.7493 21.6793C51.897 21.4435 52.0945 21.2589 52.3416 21.1254C52.5888 20.9918 52.8615 20.8924 53.1598 20.8271C53.4609 20.7589 53.7635 20.7049 54.0675 20.6651C54.4652 20.614 54.7876 20.5756 55.0348 20.5501C55.2848 20.5217 55.4666 20.4748 55.5803 20.4094C55.6967 20.3441 55.755 20.2305 55.755 20.0685V20.0344C55.755 19.614 55.6399 19.2873 55.4098 19.0543C55.1825 18.8214 54.8374 18.7049 54.3743 18.7049C53.8942 18.7049 53.5178 18.81 53.245 19.0202C52.9723 19.2305 52.7805 19.4549 52.6697 19.6935L51.7152 19.3526C51.8857 18.9549 52.1129 18.6452 52.397 18.4237C52.6839 18.1992 52.9964 18.043 53.3345 17.9549C53.6754 17.864 54.0107 17.8185 54.3402 17.8185C54.5504 17.8185 54.7919 17.8441 55.0646 17.8952C55.3402 17.9435 55.6058 18.0444 55.8615 18.1978C56.12 18.3512 56.3345 18.5827 56.505 18.8924C56.6754 19.2021 56.7607 19.6168 56.7607 20.1367V24.4492H55.755V23.5629H55.7038C55.6357 23.7049 55.522 23.8569 55.3629 24.0188C55.2038 24.1808 54.9922 24.3185 54.728 24.4322C54.4638 24.5458 54.1413 24.6026 53.7607 24.6026ZM53.9141 23.6992C54.3118 23.6992 54.647 23.6211 54.9197 23.4648C55.1953 23.3086 55.4027 23.1069 55.5419 22.8597C55.6839 22.6126 55.755 22.3526 55.755 22.0799V21.1594C55.7124 21.2106 55.6186 21.2575 55.4737 21.3001C55.3317 21.3398 55.1669 21.3754 54.9794 21.4066C54.7947 21.435 54.6143 21.4606 54.4382 21.4833C54.2649 21.5032 54.1243 21.5202 54.0163 21.5344C53.755 21.5685 53.5107 21.6239 53.2834 21.7006C53.0589 21.7745 52.8771 21.8867 52.7379 22.0373C52.6016 22.185 52.5334 22.3867 52.5334 22.6424C52.5334 22.9918 52.6626 23.256 52.9212 23.435C53.1825 23.6112 53.5135 23.6992 53.9141 23.6992ZM63.7141 17.9038L61.2937 24.4492H60.271L57.8505 17.9038H58.9414L60.7482 23.1197H60.8164L62.6232 17.9038H63.7141ZM67.5515 24.5856C66.9208 24.5856 66.3768 24.4464 65.9194 24.168C65.4648 23.8867 65.114 23.4947 64.8668 22.9918C64.6225 22.4862 64.5004 21.8981 64.5004 21.2276C64.5004 20.5572 64.6225 19.9663 64.8668 19.4549C65.114 18.9407 65.4577 18.5401 65.8981 18.2532C66.3413 17.9634 66.8583 17.8185 67.4492 17.8185C67.7901 17.8185 68.1268 17.8754 68.4592 17.989C68.7915 18.1026 69.0941 18.2873 69.3668 18.543C69.6396 18.7958 69.8569 19.131 70.0188 19.5487C70.1808 19.9663 70.2617 20.4805 70.2617 21.0913V21.5174H65.2163V20.6481H69.239C69.239 20.2788 69.1651 19.9492 69.0174 19.6594C68.8725 19.3697 68.6651 19.141 68.3952 18.9734C68.1282 18.8058 67.8129 18.7219 67.4492 18.7219C67.0487 18.7219 66.7021 18.8214 66.4094 19.0202C66.1197 19.2163 65.8967 19.4719 65.7404 19.7873C65.5842 20.1026 65.506 20.4407 65.506 20.8015V21.381C65.506 21.8754 65.5913 22.2944 65.7617 22.6381C65.935 22.979 66.1751 23.239 66.4819 23.418C66.7887 23.5941 67.1452 23.6822 67.5515 23.6822C67.8157 23.6822 68.0543 23.6452 68.2674 23.5714C68.4833 23.4947 68.6694 23.381 68.8256 23.2305C68.9819 23.0771 69.1026 22.8867 69.1879 22.6594L70.1594 22.9322C70.0572 23.2617 69.8853 23.5515 69.6438 23.8015C69.4023 24.0487 69.104 24.2418 68.7489 24.381C68.3938 24.5174 67.9947 24.5856 67.5515 24.5856ZM74.4506 24.5856C73.837 24.5856 73.3086 24.4407 72.8654 24.1509C72.4222 23.8612 72.0813 23.462 71.8427 22.9535C71.604 22.445 71.4847 21.864 71.4847 21.2106C71.4847 20.5458 71.6069 19.9592 71.8512 19.4506C72.0984 18.9393 72.4421 18.5401 72.8825 18.2532C73.3256 17.9634 73.8427 17.8185 74.4336 17.8185C74.8938 17.8185 75.3086 17.9038 75.6779 18.0742C76.0472 18.2447 76.3498 18.4833 76.5856 18.7901C76.8214 19.0969 76.9677 19.4549 77.0245 19.864H76.0188C75.9421 19.5657 75.7717 19.3015 75.5075 19.0714C75.2461 18.8384 74.8938 18.7219 74.4506 18.7219C74.0586 18.7219 73.7148 18.8242 73.4194 19.0288C73.1268 19.2305 72.8981 19.516 72.7333 19.8853C72.5714 20.2518 72.4904 20.6822 72.4904 21.1765C72.4904 21.6822 72.57 22.1225 72.729 22.4975C72.891 22.8725 73.1183 23.1637 73.4109 23.3711C73.7063 23.5785 74.0529 23.6822 74.4506 23.6822C74.712 23.6822 74.9492 23.6367 75.1623 23.5458C75.3754 23.4549 75.5558 23.3242 75.7035 23.1538C75.8512 22.9833 75.9563 22.7788 76.0188 22.5401H77.0245C76.9677 22.9265 76.8271 23.2745 76.6026 23.5842C76.381 23.891 76.087 24.1353 75.7205 24.3171C75.3569 24.4961 74.9336 24.5856 74.4506 24.5856Z" fill="black"/>
<g clip-path="url(#clip0_192_3886)">
<path d="M152.507 22.2832L154.282 23.4668C153.706 24.3155 152.328 25.7718 149.945 25.7718C146.986 25.7718 144.782 23.4824 144.782 20.57C144.782 17.4709 147.009 15.3684 149.696 15.3684C152.398 15.3684 153.721 17.5175 154.15 18.6778L154.383 19.2697L147.422 22.1508C147.951 23.1943 148.777 23.7238 149.945 23.7238C151.113 23.7238 151.923 23.1475 152.507 22.2832ZM147.048 20.4067L151.697 18.4754C151.44 17.8292 150.677 17.3698 149.766 17.3698C148.606 17.3698 146.994 18.3977 147.048 20.4067Z" fill="#FF302F"/>
<path d="M141.426 10.0657H143.668V25.2969H141.426V10.0657Z" fill="#20B15A"/>
<path d="M137.891 15.7735H140.055V25.0243C140.055 28.8632 137.789 30.444 135.111 30.444C132.588 30.444 131.069 28.7465 130.501 27.3682L132.486 26.5427C132.845 27.3915 133.709 28.3961 135.111 28.3961C136.831 28.3961 137.891 27.3292 137.891 25.3358V24.5883H137.813C137.299 25.2112 136.318 25.7718 135.072 25.7718C132.471 25.7718 130.088 23.5058 130.088 20.5858C130.088 17.6501 132.471 15.3608 135.072 15.3608C136.31 15.3608 137.299 15.9137 137.813 16.5211H137.891V15.7735ZM138.046 20.5858C138.046 18.7481 136.824 17.4087 135.266 17.4087C133.693 17.4087 132.37 18.7481 132.37 20.5858C132.37 22.4001 133.693 23.7161 135.266 23.7161C136.824 23.724 138.046 22.4001 138.046 20.5858" fill="#3686F7"/>
<path d="M117.777 20.5468C117.777 23.5448 115.441 25.7484 112.576 25.7484C109.71 25.7484 107.374 23.537 107.374 20.5468C107.374 17.5333 109.71 15.3374 112.576 15.3374C115.441 15.3374 117.777 17.5333 117.777 20.5468ZM115.504 20.5468C115.504 18.678 114.149 17.393 112.576 17.393C111.003 17.393 109.648 18.678 109.648 20.5468C109.648 22.4 111.003 23.7005 112.576 23.7005C114.149 23.7005 115.504 22.4 115.504 20.5468Z" fill="#FF302F"/>
<path d="M129.139 20.57C129.139 23.568 126.802 25.7717 123.937 25.7717C121.071 25.7717 118.735 23.5679 118.735 20.57C118.735 17.5565 121.071 15.3684 123.937 15.3684C126.802 15.3684 129.139 17.5488 129.139 20.57ZM126.857 20.57C126.857 18.7013 125.502 17.4163 123.929 17.4163C122.356 17.4163 121.001 18.7013 121.001 20.57C121.001 22.4233 122.356 23.7238 123.929 23.7238C125.51 23.7238 126.857 22.4155 126.857 20.57Z" fill="#FFBA40"/>
<path d="M98.8235 23.4902C95.5608 23.4902 93.0068 20.8582 93.0068 17.5954C93.0068 14.3328 95.5608 11.7008 98.8235 11.7008C100.583 11.7008 101.868 12.3938 102.818 13.2816L104.383 11.7164C103.06 10.4472 101.292 9.48145 98.8235 9.48145C94.3539 9.48157 90.5928 13.1259 90.5928 17.5954C90.5928 22.0649 94.3539 25.7094 98.8235 25.7094C101.238 25.7094 103.06 24.9152 104.485 23.4357C105.949 21.9717 106.4 19.9159 106.4 18.2496C106.4 17.7278 106.338 17.1906 106.268 16.7934H98.8235V18.9582H104.126C103.971 20.3132 103.542 21.2398 102.912 21.8704C102.149 22.6414 100.942 23.4902 98.8235 23.4902Z" fill="#3686F7"/>
</g>
</g>
<defs>
<clipPath id="clip0_192_3886">
<rect width="64" height="21" fill="white" transform="translate(90.5 9.44922)"/>
</clipPath>
</defs>
</svg>
