<svg width="166" height="40" viewBox="0 0 166 40" fill="none" xmlns="http://www.w3.org/2000/svg">
<g opacity="0.8">
<rect x="0.5" y="0.449219" width="165" height="39" rx="8" fill="#D5D2D2"/>
<path d="M14.1125 24.4492V15.7219H17.0613C17.746 15.7219 18.3057 15.8455 18.7403 16.0927C19.1778 16.337 19.5017 16.668 19.7119 17.0856C19.9221 17.5032 20.0273 17.9691 20.0273 18.4833C20.0273 18.9975 19.9221 19.4648 19.7119 19.8853C19.5045 20.3058 19.1835 20.641 18.7488 20.891C18.3142 21.1381 17.7574 21.2617 17.0784 21.2617H14.9648V20.3242H17.0443C17.5131 20.3242 17.8895 20.2433 18.1736 20.0813C18.4577 19.9194 18.6636 19.7006 18.7915 19.4251C18.9221 19.1467 18.9875 18.8327 18.9875 18.4833C18.9875 18.1339 18.9221 17.8214 18.7915 17.5458C18.6636 17.2702 18.4562 17.0543 18.1693 16.8981C17.8824 16.739 17.5017 16.6594 17.0273 16.6594H15.1693V24.4492H14.1125ZM23.5194 24.6026C23.1047 24.6026 22.7282 24.5245 22.3902 24.3683C22.0521 24.2092 21.7836 23.9805 21.5848 23.6822C21.3859 23.381 21.2865 23.0174 21.2865 22.5913C21.2865 22.2163 21.3604 21.9123 21.5081 21.6793C21.6558 21.4435 21.8532 21.2589 22.1004 21.1254C22.3476 20.9918 22.6203 20.8924 22.9186 20.8271C23.2197 20.7589 23.5223 20.7049 23.8263 20.6651C24.224 20.614 24.5464 20.5756 24.7936 20.5501C25.0436 20.5217 25.2254 20.4748 25.339 20.4094C25.4555 20.3441 25.5138 20.2305 25.5138 20.0685V20.0344C25.5138 19.614 25.3987 19.2873 25.1686 19.0543C24.9413 18.8214 24.5961 18.7049 24.1331 18.7049C23.653 18.7049 23.2765 18.81 23.0038 19.0202C22.7311 19.2305 22.5393 19.4549 22.4285 19.6935L21.474 19.3526C21.6444 18.9549 21.8717 18.6452 22.1558 18.4237C22.4427 18.1992 22.7552 18.043 23.0933 17.9549C23.4342 17.864 23.7694 17.8185 24.099 17.8185C24.3092 17.8185 24.5507 17.8441 24.8234 17.8952C25.099 17.9435 25.3646 18.0444 25.6203 18.1978C25.8788 18.3512 26.0933 18.5827 26.2638 18.8924C26.4342 19.2021 26.5194 19.6168 26.5194 20.1367V24.4492H25.5138V23.5629H25.4626C25.3944 23.7049 25.2808 23.8569 25.1217 24.0188C24.9626 24.1808 24.751 24.3185 24.4868 24.4322C24.2226 24.5458 23.9001 24.6026 23.5194 24.6026ZM23.6729 23.6992C24.0706 23.6992 24.4058 23.6211 24.6785 23.4648C24.9541 23.3086 25.1615 23.1069 25.3007 22.8597C25.4427 22.6126 25.5138 22.3526 25.5138 22.0799V21.1594C25.4711 21.2106 25.3774 21.2575 25.2325 21.3001C25.0905 21.3398 24.9257 21.3754 24.7382 21.4066C24.5535 21.435 24.3731 21.4606 24.197 21.4833C24.0237 21.5032 23.8831 21.5202 23.7751 21.5344C23.5138 21.5685 23.2694 21.6239 23.0422 21.7006C22.8177 21.7745 22.6359 21.8867 22.4967 22.0373C22.3604 22.185 22.2922 22.3867 22.2922 22.6424C22.2922 22.9918 22.4214 23.256 22.68 23.435C22.9413 23.6112 23.2723 23.6992 23.6729 23.6992ZM28.7684 26.9038C28.5979 26.9038 28.4459 26.8896 28.3124 26.8612C28.1789 26.8356 28.0866 26.81 28.0354 26.7844L28.2911 25.8981C28.5354 25.9606 28.7513 25.9833 28.9388 25.9663C29.1263 25.9492 29.2925 25.8654 29.4374 25.7148C29.5851 25.5671 29.7201 25.3271 29.8422 24.9947L30.0297 24.4833L27.6093 17.9038H28.7002L30.507 23.1197H30.5752L32.382 17.9038H33.4729L30.6945 25.4038C30.5695 25.7418 30.4147 26.0217 30.23 26.2433C30.0454 26.4677 29.8309 26.6339 29.5866 26.7418C29.3451 26.8498 29.0724 26.9038 28.7684 26.9038ZM37.3103 24.5856C36.6796 24.5856 36.1356 24.4464 35.6782 24.168C35.2236 23.8867 34.8728 23.4947 34.6256 22.9918C34.3813 22.4862 34.2591 21.8981 34.2591 21.2276C34.2591 20.5572 34.3813 19.9663 34.6256 19.4549C34.8728 18.9407 35.2165 18.5401 35.6569 18.2532C36.1001 17.9634 36.6171 17.8185 37.208 17.8185C37.5489 17.8185 37.8856 17.8754 38.218 17.989C38.5503 18.1026 38.8529 18.2873 39.1256 18.543C39.3983 18.7958 39.6157 19.131 39.7776 19.5487C39.9395 19.9663 40.0205 20.4805 40.0205 21.0913V21.5174H34.9751V20.6481H38.9978C38.9978 20.2788 38.9239 19.9492 38.7762 19.6594C38.6313 19.3697 38.4239 19.141 38.154 18.9734C37.887 18.8058 37.5716 18.7219 37.208 18.7219C36.8074 18.7219 36.4608 18.8214 36.1682 19.0202C35.8785 19.2163 35.6555 19.4719 35.4992 19.7873C35.343 20.1026 35.2648 20.4407 35.2648 20.8015V21.381C35.2648 21.8754 35.3501 22.2944 35.5205 22.6381C35.6938 22.979 35.9339 23.239 36.2407 23.418C36.5475 23.5941 36.904 23.6822 37.3103 23.6822C37.5745 23.6822 37.8131 23.6452 38.0262 23.5714C38.2421 23.4947 38.4282 23.381 38.5844 23.2305C38.7407 23.0771 38.8614 22.8867 38.9466 22.6594L39.9182 22.9322C39.816 23.2617 39.6441 23.5515 39.4026 23.8015C39.1611 24.0487 38.8628 24.2418 38.5077 24.381C38.1526 24.5174 37.7535 24.5856 37.3103 24.5856ZM41.5503 24.4492V17.9038H42.5219V18.8924H42.5901C42.7094 18.5685 42.9253 18.3058 43.2378 18.104C43.5503 17.9023 43.9026 17.8015 44.2947 17.8015C44.3685 17.8015 44.4608 17.8029 44.5716 17.8058C44.6824 17.8086 44.7662 17.8129 44.8231 17.8185V18.8413C44.789 18.8327 44.7108 18.82 44.5887 18.8029C44.4694 18.783 44.343 18.7731 44.2094 18.7731C43.8912 18.7731 43.6072 18.8398 43.3572 18.9734C43.11 19.104 42.914 19.2859 42.7691 19.5188C42.627 19.7489 42.556 20.0117 42.556 20.3072V24.4492H41.5503ZM51.3163 24.6026C50.9015 24.6026 50.5251 24.5245 50.1871 24.3683C49.849 24.2092 49.5805 23.9805 49.3817 23.6822C49.1828 23.381 49.0834 23.0174 49.0834 22.5913C49.0834 22.2163 49.1572 21.9123 49.305 21.6793C49.4527 21.4435 49.6501 21.2589 49.8973 21.1254C50.1444 20.9918 50.4172 20.8924 50.7155 20.8271C51.0166 20.7589 51.3192 20.7049 51.6231 20.6651C52.0209 20.614 52.3433 20.5756 52.5905 20.5501C52.8405 20.5217 53.0223 20.4748 53.1359 20.4094C53.2524 20.3441 53.3106 20.2305 53.3106 20.0685V20.0344C53.3106 19.614 53.1956 19.2873 52.9655 19.0543C52.7382 18.8214 52.393 18.7049 51.93 18.7049C51.4498 18.7049 51.0734 18.81 50.8007 19.0202C50.528 19.2305 50.3362 19.4549 50.2254 19.6935L49.2709 19.3526C49.4413 18.9549 49.6686 18.6452 49.9527 18.4237C50.2396 18.1992 50.5521 18.043 50.8902 17.9549C51.2311 17.864 51.5663 17.8185 51.8959 17.8185C52.1061 17.8185 52.3476 17.8441 52.6203 17.8952C52.8959 17.9435 53.1615 18.0444 53.4172 18.1978C53.6757 18.3512 53.8902 18.5827 54.0606 18.8924C54.2311 19.2021 54.3163 19.6168 54.3163 20.1367V24.4492H53.3106V23.5629H53.2595C53.1913 23.7049 53.0777 23.8569 52.9186 24.0188C52.7595 24.1808 52.5479 24.3185 52.2836 24.4322C52.0194 24.5458 51.697 24.6026 51.3163 24.6026ZM51.4697 23.6992C51.8675 23.6992 52.2027 23.6211 52.4754 23.4648C52.751 23.3086 52.9584 23.1069 53.0976 22.8597C53.2396 22.6126 53.3106 22.3526 53.3106 22.0799V21.1594C53.268 21.2106 53.1743 21.2575 53.0294 21.3001C52.8873 21.3398 52.7226 21.3754 52.5351 21.4066C52.3504 21.435 52.17 21.4606 51.9939 21.4833C51.8206 21.5032 51.68 21.5202 51.572 21.5344C51.3106 21.5685 51.0663 21.6239 50.839 21.7006C50.6146 21.7745 50.4328 21.8867 50.2936 22.0373C50.1572 22.185 50.089 22.3867 50.089 22.6424C50.089 22.9918 50.2183 23.256 50.4768 23.435C50.7382 23.6112 51.0692 23.6992 51.4697 23.6992ZM61.2698 17.9038L58.8493 24.4492H57.8266L55.4062 17.9038H56.4971L58.3039 23.1197H58.3721L60.1789 17.9038H61.2698ZM65.1072 24.5856C64.4765 24.5856 63.9324 24.4464 63.4751 24.168C63.0205 23.8867 62.6697 23.4947 62.4225 22.9918C62.1782 22.4862 62.056 21.8981 62.056 21.2276C62.056 20.5572 62.1782 19.9663 62.4225 19.4549C62.6697 18.9407 63.0134 18.5401 63.4537 18.2532C63.8969 17.9634 64.414 17.8185 65.0049 17.8185C65.3458 17.8185 65.6824 17.8754 66.0148 17.989C66.3472 18.1026 66.6498 18.2873 66.9225 18.543C67.1952 18.7958 67.4126 19.131 67.5745 19.5487C67.7364 19.9663 67.8174 20.4805 67.8174 21.0913V21.5174H62.7719V20.6481H66.7947C66.7947 20.2788 66.7208 19.9492 66.5731 19.6594C66.4282 19.3697 66.2208 19.141 65.9509 18.9734C65.6839 18.8058 65.3685 18.7219 65.0049 18.7219C64.6043 18.7219 64.2577 18.8214 63.9651 19.0202C63.6753 19.2163 63.4523 19.4719 63.2961 19.7873C63.1398 20.1026 63.0617 20.4407 63.0617 20.8015V21.381C63.0617 21.8754 63.1469 22.2944 63.3174 22.6381C63.4907 22.979 63.7307 23.239 64.0376 23.418C64.3444 23.5941 64.7009 23.6822 65.1072 23.6822C65.3714 23.6822 65.61 23.6452 65.8231 23.5714C66.039 23.4947 66.2251 23.381 66.3813 23.2305C66.5376 23.0771 66.6583 22.8867 66.7435 22.6594L67.7151 22.9322C67.6128 23.2617 67.441 23.5515 67.1995 23.8015C66.958 24.0487 66.6597 24.2418 66.3046 24.381C65.9495 24.5174 65.5503 24.5856 65.1072 24.5856ZM72.0063 24.5856C71.3927 24.5856 70.8643 24.4407 70.4211 24.1509C69.9779 23.8612 69.637 23.462 69.3983 22.9535C69.1597 22.445 69.0404 21.864 69.0404 21.2106C69.0404 20.5458 69.1626 19.9592 69.4069 19.4506C69.654 18.9393 69.9978 18.5401 70.4381 18.2532C70.8813 17.9634 71.3983 17.8185 71.9893 17.8185C72.4495 17.8185 72.8643 17.9038 73.2336 18.0742C73.6029 18.2447 73.9055 18.4833 74.1412 18.7901C74.377 19.0969 74.5233 19.4549 74.5802 19.864H73.5745C73.4978 19.5657 73.3273 19.3015 73.0631 19.0714C72.8018 18.8384 72.4495 18.7219 72.0063 18.7219C71.6143 18.7219 71.2705 18.8242 70.9751 19.0288C70.6824 19.2305 70.4537 19.516 70.289 19.8853C70.127 20.2518 70.0461 20.6822 70.0461 21.1765C70.0461 21.6822 70.1256 22.1225 70.2847 22.4975C70.4466 22.8725 70.6739 23.1637 70.9665 23.3711C71.262 23.5785 71.6086 23.6822 72.0063 23.6822C72.2677 23.6822 72.5049 23.6367 72.718 23.5458C72.931 23.4549 73.1114 23.3242 73.2591 23.1538C73.4069 22.9833 73.512 22.7788 73.5745 22.5401H74.5802C74.5233 22.9265 74.3827 23.2745 74.1583 23.5842C73.9367 23.891 73.6427 24.1353 73.2762 24.3171C72.9126 24.4961 72.4893 24.5856 72.0063 24.5856Z" fill="black"/>
<g clip-path="url(#clip0_192_3880)">
<path d="M130.304 25.4585C126.535 28.2326 121.077 29.7136 116.375 29.7136C110.093 29.745 104.026 27.4301 99.3609 23.2224C99.0109 22.9048 99.3285 22.4705 99.7498 22.7168C104.595 25.5363 110.584 27.2312 116.77 27.2312C120.944 27.2312 125.533 26.3691 129.756 24.577C130.391 24.3048 130.926 24.9951 130.304 25.4585Z" fill="black"/>
<path d="M131.866 23.6664C132.352 24.2821 131.331 26.8261 130.877 27.9603C130.741 28.3039 131.036 28.4432 131.347 28.184C133.37 26.4923 133.888 22.9534 133.477 22.4414C133.065 21.9293 129.533 21.4951 127.381 23.0117C127.047 23.2418 127.102 23.5627 127.471 23.5205C128.687 23.3747 131.386 23.0506 131.866 23.6664ZM127.556 12.3173V10.8428C127.556 10.6191 127.728 10.4701 127.928 10.4701H134.523C134.734 10.4701 134.903 10.6224 134.903 10.8428V12.1066C134.903 12.3173 134.724 12.5928 134.407 13.0303L130.991 17.9076C132.261 17.8752 133.6 18.0664 134.75 18.7145C135.009 18.8603 135.081 19.0742 135.103 19.2881V20.8599C135.103 21.0738 134.864 21.3233 134.617 21.1937C133.539 20.6387 132.344 20.3503 131.132 20.3526C129.92 20.3548 128.726 20.6477 127.65 21.2066C127.423 21.3298 127.183 21.0803 127.183 20.8664V19.3756C127.183 19.1358 127.183 18.7275 127.426 18.3613L131.38 12.69H127.935C127.724 12.69 127.552 12.5377 127.552 12.3205M103.506 21.5048H101.497C101.407 21.498 101.323 21.4604 101.258 21.3983C101.193 21.3363 101.151 21.2537 101.14 21.1645V10.8687C101.14 10.6613 101.312 10.4992 101.529 10.4992H103.399C103.594 10.5057 103.749 10.658 103.762 10.8428V12.1877H103.798C104.284 10.8881 105.204 10.2821 106.439 10.2821C107.696 10.2821 108.481 10.8881 109.045 12.1877C109.245 11.6174 109.621 11.1255 110.119 10.783C110.617 10.4405 111.211 10.2651 111.815 10.2821C112.263 10.2741 112.707 10.3718 113.11 10.5672C113.513 10.7625 113.865 11.0501 114.136 11.4066C114.771 12.2719 114.641 13.5326 114.641 14.6344V21.1321C114.641 21.1822 114.63 21.2316 114.61 21.2775C114.59 21.3234 114.561 21.3649 114.525 21.3995C114.488 21.4342 114.446 21.4613 114.399 21.4794C114.352 21.4974 114.303 21.5061 114.252 21.5048H112.25C112.154 21.4985 112.064 21.4569 111.997 21.3881C111.93 21.3193 111.891 21.2281 111.887 21.1321V15.6747C111.887 15.2404 111.926 14.158 111.832 13.7465C111.683 13.0562 111.232 12.8617 110.652 12.8617C110.166 12.8617 109.66 13.1858 109.453 13.7043C109.246 14.2228 109.268 15.0914 109.268 15.6747V21.1321C109.267 21.1822 109.257 21.2316 109.237 21.2775C109.217 21.3234 109.188 21.3649 109.151 21.3995C109.115 21.4342 109.073 21.4613 109.026 21.4794C108.979 21.4974 108.929 21.5061 108.879 21.5048H106.88C106.784 21.4999 106.693 21.4586 106.626 21.3894C106.56 21.3202 106.522 21.2283 106.52 21.1321L106.517 15.6747C106.517 14.5275 106.705 12.839 105.282 12.839C103.84 12.839 103.895 14.4853 103.895 15.6747V21.1321C103.894 21.1822 103.883 21.2316 103.863 21.2775C103.843 21.3234 103.814 21.3649 103.778 21.3995C103.742 21.4342 103.7 21.4613 103.653 21.4794C103.606 21.4974 103.556 21.5061 103.506 21.5048ZM140.584 10.2821C143.559 10.2821 145.169 12.839 145.169 16.0895C145.169 19.2265 143.387 21.7187 140.58 21.7187C137.657 21.7187 136.066 19.1617 136.066 15.9793C136.066 12.771 137.68 10.2821 140.584 10.2821ZM140.593 12.3821C139.115 12.3821 139.021 14.3978 139.021 15.6553C139.021 16.9127 139.002 19.5992 140.577 19.5992C142.133 19.5992 142.204 17.4279 142.204 16.109C142.204 15.2404 142.171 14.2034 141.906 13.3803C141.679 12.664 141.232 12.3821 140.593 12.3821ZM149.029 21.5048H147.029C146.934 21.4977 146.845 21.4558 146.778 21.3871C146.712 21.3183 146.673 21.2276 146.67 21.1321L146.666 10.833C146.678 10.7388 146.724 10.6523 146.796 10.5905C146.868 10.5287 146.96 10.4961 147.055 10.4992H148.912C148.995 10.5033 149.073 10.5335 149.137 10.5853C149.202 10.6372 149.248 10.708 149.269 10.7877V12.3594H149.308C149.868 10.9529 150.656 10.2821 152.043 10.2821C152.94 10.2821 153.819 10.6062 154.383 11.4941C154.908 12.3173 154.908 13.7043 154.908 14.7025V21.1807C154.892 21.2723 154.844 21.3553 154.773 21.4147C154.702 21.4741 154.612 21.5061 154.519 21.5048H152.509C152.422 21.4987 152.34 21.4634 152.275 21.4046C152.21 21.3458 152.167 21.2669 152.153 21.1807V15.5872C152.153 14.4627 152.283 12.8164 150.899 12.8164C150.413 12.8164 149.959 13.1404 149.739 13.6395C149.457 14.2682 149.421 14.8937 149.421 15.5872V21.1321C149.417 21.233 149.374 21.3283 149.3 21.3978C149.227 21.4674 149.13 21.5057 149.029 21.5048ZM122.302 16.5886V16.1543C120.847 16.1543 119.318 16.4622 119.318 18.1733C119.318 19.0386 119.768 19.6252 120.54 19.6252C121.1 19.6252 121.609 19.2784 121.927 18.7145C122.322 18.021 122.302 17.3696 122.302 16.5886ZM124.325 21.4756C124.26 21.5304 124.18 21.5644 124.096 21.5731C124.011 21.5818 123.926 21.5647 123.852 21.5242C123.184 20.9733 123.064 20.714 122.698 20.1858C121.596 21.3103 120.818 21.6441 119.392 21.6441C117.704 21.6441 116.391 20.6071 116.391 18.5201C116.391 16.8932 117.27 15.7816 118.53 15.2404C119.619 14.7608 121.139 14.6765 122.302 14.5437V14.2844C122.302 13.808 122.335 13.2441 122.056 12.8326C121.813 12.4631 121.343 12.3108 120.928 12.3108C120.167 12.3108 119.486 12.6997 119.318 13.5131C119.285 13.6946 119.152 13.8728 118.968 13.8826L117.023 13.6719C116.861 13.6363 116.677 13.5034 116.725 13.2506C117.172 10.8946 119.305 10.1816 121.214 10.1816C122.186 10.1816 123.463 10.4409 124.234 11.183C125.209 12.0904 125.115 13.309 125.115 14.6312V17.7585C125.115 18.6983 125.504 19.1099 125.874 19.6187C126 19.7969 126.029 20.014 125.864 20.1502C125.456 20.4937 124.73 21.1256 124.328 21.4821L124.325 21.4756ZM96.0039 16.5886V16.1543C94.552 16.1543 93.0224 16.4622 93.0224 18.1733C93.0224 19.0386 93.4696 19.6252 94.2409 19.6252C94.8048 19.6252 95.3104 19.2784 95.628 18.7145C96.0233 18.021 96.0039 17.3696 96.0039 16.5886ZM98.0261 21.4756C97.9613 21.5304 97.8815 21.5644 97.797 21.5731C97.7126 21.5818 97.6275 21.5647 97.553 21.5242C96.8854 20.9733 96.7687 20.714 96.4025 20.1858C95.3006 21.3103 94.5229 21.6441 93.0969 21.6441C91.4085 21.6441 90.0928 20.6071 90.0928 18.5201C90.0928 16.8932 90.9743 15.7816 92.2317 15.2404C93.3206 14.7608 94.8405 14.6765 96.0039 14.5437V14.2844C96.0039 13.808 96.0395 13.2441 95.7608 12.8326C95.5145 12.4631 95.0479 12.3108 94.6363 12.3108C93.8715 12.3108 93.1877 12.6997 93.0224 13.5131C92.99 13.6946 92.8539 13.8728 92.6756 13.8826L90.728 13.6719C90.5659 13.6363 90.3844 13.5034 90.4298 13.2506C90.877 10.8946 93.0062 10.1816 94.915 10.1816C95.8905 10.1816 97.1673 10.4409 97.9354 11.183C98.9108 12.0904 98.8201 13.309 98.8201 14.6312V17.7585C98.8201 18.6983 99.209 19.1099 99.5752 19.6187C99.7048 19.7969 99.734 20.014 99.5687 20.1502C99.1604 20.4937 98.4344 21.1256 98.0326 21.4821L98.0261 21.4756Z" fill="black"/>
</g>
</g>
<defs>
<clipPath id="clip0_192_3880">
<rect width="68.8889" height="20" fill="white" transform="translate(88.0557 9.94922)"/>
</clipPath>
</defs>
</svg>
