<svg width="62" height="62" viewBox="0 0 62 62" fill="none" xmlns="http://www.w3.org/2000/svg">
<circle cx="31" cy="31" r="29" fill="white" stroke="url(#paint0_angular_480_5533)" stroke-width="4"/>
<g clip-path="url(#clip0_480_5533)">
<path d="M14.8571 48.1429H21.2857V41.7143H14.8571V48.1429ZM22.7143 48.1429H29.8571V41.7143H22.7143V48.1429ZM14.8571 40.2857H21.2857V33.1429H14.8571V40.2857ZM22.7143 40.2857H29.8571V33.1429H22.7143V40.2857ZM14.8571 31.7143H21.2857V25.2857H14.8571V31.7143ZM31.2857 48.1429H38.4286V41.7143H31.2857V48.1429ZM22.7143 31.7143H29.8571V25.2857H22.7143V31.7143ZM39.8571 48.1429H46.2857V41.7143H39.8571V48.1429ZM31.2857 40.2857H38.4286V33.1429H31.2857V40.2857ZM23.4286 21V14.5714C23.4286 14.378 23.3579 14.2106 23.2165 14.0692C23.0751 13.9278 22.9077 13.8571 22.7143 13.8571H21.2857C21.0923 13.8571 20.9249 13.9278 20.7835 14.0692C20.6421 14.2106 20.5714 14.378 20.5714 14.5714V21C20.5714 21.1935 20.6421 21.3609 20.7835 21.5022C20.9249 21.6436 21.0923 21.7143 21.2857 21.7143H22.7143C22.9077 21.7143 23.0751 21.6436 23.2165 21.5022C23.3579 21.3609 23.4286 21.1935 23.4286 21ZM39.8571 40.2857H46.2857V33.1429H39.8571V40.2857ZM31.2857 31.7143H38.4286V25.2857H31.2857V31.7143ZM39.8571 31.7143H46.2857V25.2857H39.8571V31.7143ZM40.5714 21V14.5714C40.5714 14.378 40.5007 14.2106 40.3594 14.0692C40.218 13.9278 40.0506 13.8571 39.8571 13.8571H38.4286C38.2351 13.8571 38.0677 13.9278 37.9263 14.0692C37.785 14.2106 37.7143 14.378 37.7143 14.5714V21C37.7143 21.1935 37.785 21.3609 37.9263 21.5022C38.0677 21.6436 38.2351 21.7143 38.4286 21.7143H39.8571C40.0506 21.7143 40.218 21.6436 40.3594 21.5022C40.5007 21.3609 40.5714 21.1935 40.5714 21ZM49.1429 19.5714V48.1429C49.1429 48.9167 48.8601 49.5863 48.2946 50.1518C47.7292 50.7173 47.0595 51 46.2857 51H14.8571C14.0833 51 13.4137 50.7173 12.8482 50.1518C12.2827 49.5863 12 48.9167 12 48.1429V19.5714C12 18.7976 12.2827 18.128 12.8482 17.5625C13.4137 16.997 14.0833 16.7143 14.8571 16.7143H17.7143V14.5714C17.7143 13.5893 18.064 12.7485 18.7634 12.0491C19.4628 11.3497 20.3036 11 21.2857 11H22.7143C23.6964 11 24.5372 11.3497 25.2366 12.0491C25.936 12.7485 26.2857 13.5893 26.2857 14.5714V16.7143H34.8571V14.5714C34.8571 13.5893 35.2068 12.7485 35.9063 12.0491C36.6057 11.3497 37.4464 11 38.4286 11H39.8571C40.8393 11 41.6801 11.3497 42.3795 12.0491C43.0789 12.7485 43.4286 13.5893 43.4286 14.5714V16.7143H46.2857C47.0595 16.7143 47.7292 16.997 48.2946 17.5625C48.8601 18.128 49.1429 18.7976 49.1429 19.5714Z" fill="black"/>
</g>
<defs>
<radialGradient id="paint0_angular_480_5533" cx="0" cy="0" r="1" gradientUnits="userSpaceOnUse" gradientTransform="translate(31 31) rotate(90) scale(27)">
<stop offset="0.38" stop-color="#F5ED31" stop-opacity="0"/>
<stop offset="1" stop-color="#8F8A1C"/>
</radialGradient>
<clipPath id="clip0_480_5533">
<rect width="37.1429" height="40" fill="white" transform="translate(12 11)"/>
</clipPath>
</defs>
</svg>
