<svg width="62" height="62" viewBox="0 0 62 62" fill="none" xmlns="http://www.w3.org/2000/svg">
<circle cx="31" cy="31" r="29" fill="white" stroke="url(#paint0_angular_480_5545)" stroke-width="4"/>
<path d="M10 18.1996C10 17.7753 10.1702 17.3683 10.4731 17.0682C10.7761 16.7682 11.187 16.5996 11.6154 16.5996H47.1538C47.5823 16.5996 47.9932 16.7682 48.2961 17.0682C48.599 17.3683 48.7692 17.7753 48.7692 18.1996C48.7692 18.624 48.599 19.0309 48.2961 19.331C47.9932 19.631 47.5823 19.7996 47.1538 19.7996H11.6154C11.187 19.7996 10.7761 19.631 10.4731 19.331C10.1702 19.0309 10 18.624 10 18.1996ZM11.6154 32.5996H26.1538C26.5823 32.5996 26.9932 32.431 27.2961 32.131C27.599 31.8309 27.7692 31.424 27.7692 30.9996C27.7692 30.5753 27.599 30.1683 27.2961 29.8682C26.9932 29.5682 26.5823 29.3996 26.1538 29.3996H11.6154C11.187 29.3996 10.7761 29.5682 10.4731 29.8682C10.1702 30.1683 10 30.5753 10 30.9996C10 31.424 10.1702 31.8309 10.4731 32.131C10.7761 32.431 11.187 32.5996 11.6154 32.5996ZM29.3846 42.1996H11.6154C11.187 42.1996 10.7761 42.3682 10.4731 42.6682C10.1702 42.9683 10 43.3753 10 43.7996C10 44.224 10.1702 44.6309 10.4731 44.931C10.7761 45.231 11.187 45.3996 11.6154 45.3996H29.3846C29.813 45.3996 30.2239 45.231 30.5269 44.931C30.8298 44.6309 31 44.224 31 43.7996C31 43.3753 30.8298 42.9683 30.5269 42.6682C30.2239 42.3682 29.813 42.1996 29.3846 42.1996ZM51.5275 42.6676L47.4285 38.5996C48.5304 36.9453 48.9731 34.9447 48.6709 32.9855C48.3686 31.0263 47.3428 29.248 45.7923 27.9951C44.2418 26.7423 42.277 26.1041 40.2785 26.2042C38.2801 26.3044 36.3903 27.1357 34.9754 28.5371C33.5605 29.9386 32.7211 31.8104 32.62 33.7898C32.5189 35.7692 33.1632 37.7153 34.4281 39.251C35.693 40.7868 37.4885 41.8028 39.4665 42.1022C41.4445 42.4016 43.4644 41.9631 45.1346 40.8716L49.2337 44.9316C49.5368 45.2318 49.9479 45.4005 50.3765 45.4005C50.8052 45.4005 51.2163 45.2318 51.5194 44.9316C51.8225 44.6314 51.9928 44.2242 51.9928 43.7996C51.9928 43.375 51.8225 42.9678 51.5194 42.6676H51.5275Z" fill="black"/>
<defs>
<radialGradient id="paint0_angular_480_5545" cx="0" cy="0" r="1" gradientUnits="userSpaceOnUse" gradientTransform="translate(31 31) rotate(90) scale(27)">
<stop offset="0.38" stop-color="#35B00A" stop-opacity="0"/>
<stop offset="1" stop-color="#164A04"/>
</radialGradient>
</defs>
</svg>
