<svg width="16" height="19" viewBox="0 0 16 19" fill="none" xmlns="http://www.w3.org/2000/svg">
<path d="M10.2505 9.92917H12.1099C12.5927 9.9148 13.0655 10.0638 13.446 10.3502C13.824 10.6408 14.0856 11.0484 14.188 11.5039L14.9737 15.6219C15.0087 15.7685 15.0087 15.9209 14.9737 16.0683C14.9381 16.2146 14.866 16.3505 14.7637 16.4641C14.6663 16.5811 14.5407 16.6735 14.398 16.7335C14.2553 16.7975 14.1005 16.8296 13.943 16.8262C13.7032 16.8323 13.4687 16.7578 13.2797 16.6157C13.0871 16.4781 12.9535 16.2774 12.9043 16.0514L12.2936 12.6156H10.7387" stroke="white" stroke-width="1.5" stroke-linecap="round" stroke-linejoin="round"/>
<path d="M4.61818 8.23633C-0.742911 9.54162 0.00783462 17.3987 5.8493 17.4997C9.89178 17.5502 11.962 12.9438 9.87428 10.0806" stroke="white" stroke-width="1.5" stroke-linecap="round" stroke-linejoin="round"/>
<path d="M10.0405 6.7288V10.3415C9.41958 9.32997 8.42497 8.58114 7.25538 8.24462V12.0847C7.25608 12.2168 7.22974 12.3476 7.17787 12.4699C7.126 12.5921 7.04963 12.7034 6.9531 12.7972C6.85658 12.891 6.74179 12.9657 6.6153 13.0168C6.48881 13.0679 6.35309 13.0946 6.21589 13.0953C6.07809 13.0954 5.94163 13.0693 5.81433 13.0185C5.68704 12.9677 5.57142 12.8933 5.4741 12.7994C5.37679 12.7055 5.2997 12.594 5.24726 12.4714C5.19482 12.3487 5.16806 12.2173 5.16852 12.0847L4.6444 8.3962C4.6051 8.09392 4.65173 7.78704 4.77931 7.50824C4.90689 7.22945 5.11065 6.98917 5.36889 6.81301L6.76626 5.86141C7.85738 5.05297 10.0405 5.17087 10.0405 6.7288Z" stroke="white" stroke-width="1.5" stroke-linecap="round" stroke-linejoin="round"/>
<path d="M9.04579 5.33932C9.44002 5.33966 9.82543 5.22709 10.153 5.01594C10.4805 4.80478 10.7353 4.5046 10.885 4.15361C11.0359 3.80286 11.0754 3.41694 10.9985 3.04461C10.9215 2.67229 10.7316 2.33026 10.4528 2.06177C10.1744 1.79345 9.81941 1.61073 9.43295 1.53677C9.0465 1.46281 8.64593 1.50095 8.28202 1.64635C7.91811 1.79175 7.60725 2.03786 7.38883 2.35349C7.17042 2.66912 7.0543 3.04006 7.05518 3.41928C7.05518 3.92792 7.26518 4.41635 7.6388 4.77678C7.82331 4.95506 8.04258 5.09652 8.28403 5.19305C8.52547 5.28959 8.78434 5.33929 9.04579 5.33932Z" stroke="white" stroke-width="1.5" stroke-linecap="round" stroke-linejoin="round"/>
</svg>
