<svg width="49" height="40" viewBox="0 0 49 40" fill="none" xmlns="http://www.w3.org/2000/svg">
<g clip-path="url(#clip0_477_1028)">
<path d="M8.81366 20C8.81366 15.8397 10.4663 11.8499 13.4081 8.90813C16.3498 5.96638 20.3397 4.31373 24.4999 4.31373C28.6602 4.31373 32.6501 5.96638 35.5918 8.90813C38.5336 11.8499 40.1862 15.8397 40.1862 20C40.1862 24.1603 38.5336 28.1501 35.5918 31.0919C32.6501 34.0336 28.6602 35.6863 24.4999 35.6863C20.3397 35.6863 16.3498 34.0336 13.4081 31.0919C10.4663 28.1501 8.81366 24.1603 8.81366 20ZM24.4999 0.392159C13.6705 0.392159 4.89209 9.17059 4.89209 20C4.89209 30.8294 13.6705 39.6078 24.4999 39.6078C35.3293 39.6078 44.1078 30.8294 44.1078 20C44.1078 9.17059 35.3293 0.392159 24.4999 0.392159ZM24.4999 13.1373C24.8862 13.1373 25.2686 13.0612 25.6255 12.9134C25.9823 12.7656 26.3065 12.5489 26.5797 12.2758C26.8528 12.0027 27.0694 11.6785 27.2172 11.3216C27.365 10.9648 27.4411 10.5823 27.4411 10.1961C27.4411 9.80984 27.365 9.42738 27.2172 9.07054C27.0694 8.7137 26.8528 8.38947 26.5797 8.11635C26.3065 7.84324 25.9823 7.62659 25.6255 7.47879C25.2686 7.33098 24.8862 7.2549 24.4999 7.2549C23.7199 7.2549 22.9718 7.56478 22.4202 8.11635C21.8686 8.66793 21.5588 9.41603 21.5588 10.1961C21.5588 10.9761 21.8686 11.7242 22.4202 12.2758C22.9718 12.8274 23.7199 13.1373 24.4999 13.1373ZM24.4999 15.098C21.447 15.098 18.2686 14.398 15.4235 13.2765L13.9705 16.9216C16.0803 17.7627 18.3391 18.3294 20.5784 18.6882C20.5784 20.3941 20.747 22.1471 19.9588 23.7216L16.8646 29.9098L20.3744 31.6627L23.4176 25.5745C23.5181 25.373 23.6728 25.2035 23.8644 25.085C24.0559 24.9665 24.2767 24.9037 24.5019 24.9037C24.7271 24.9037 24.9479 24.9665 25.1394 25.085C25.3309 25.2035 25.4857 25.373 25.5862 25.5745L28.6293 31.6627L32.1391 29.9098L29.045 23.7216C28.2548 22.1451 28.4215 20.3922 28.4215 18.6863C30.6727 18.3336 32.8804 17.744 35.0078 16.9275C35.0568 16.9078 33.5764 13.2765 33.5705 13.2804C30.7215 14.3902 27.5568 15.098 24.4999 15.098Z" fill="black"/>
</g>
<defs>
<clipPath id="clip0_477_1028">
<rect width="40" height="40" fill="white" transform="translate(4.5)"/>
</clipPath>
</defs>
</svg>
