<svg width="18" height="17" viewBox="0 0 18 17" fill="none" xmlns="http://www.w3.org/2000/svg">
<path fill-rule="evenodd" clip-rule="evenodd" d="M15.5455 2.1H2.45455C2.23755 2.1 2.02944 2.18429 1.876 2.33431C1.72256 2.48434 1.63636 2.68783 1.63636 2.9V14.1C1.63636 14.3122 1.72256 14.5157 1.876 14.6657C2.02944 14.8157 2.23755 14.9 2.45455 14.9H15.5455C15.7625 14.9 15.9706 14.8157 16.124 14.6657C16.2774 14.5157 16.3636 14.3122 16.3636 14.1V2.9C16.3636 2.68783 16.2774 2.48434 16.124 2.33431C15.9706 2.18429 15.7625 2.1 15.5455 2.1ZM2.45455 0.5C1.80356 0.5 1.17924 0.752856 0.71892 1.20294C0.258603 1.65303 0 2.26348 0 2.9V14.1C0 14.7365 0.258603 15.347 0.71892 15.7971C1.17924 16.2471 1.80356 16.5 2.45455 16.5H15.5455C16.1964 16.5 16.8208 16.2471 17.2811 15.7971C17.7414 15.347 18 14.7365 18 14.1V2.9C18 2.26348 17.7414 1.65303 17.2811 1.20294C16.8208 0.752856 16.1964 0.5 15.5455 0.5H2.45455ZM4.09091 4.5H5.72727V6.1H4.09091V4.5ZM8.18182 4.5C7.96482 4.5 7.75672 4.58429 7.60328 4.73431C7.44984 4.88434 7.36364 5.08783 7.36364 5.3C7.36364 5.51217 7.44984 5.71566 7.60328 5.86569C7.75672 6.01571 7.96482 6.1 8.18182 6.1H13.0909C13.3079 6.1 13.516 6.01571 13.6695 5.86569C13.8229 5.71566 13.9091 5.51217 13.9091 5.3C13.9091 5.08783 13.8229 4.88434 13.6695 4.73431C13.516 4.58429 13.3079 4.5 13.0909 4.5H8.18182ZM5.72727 7.7H4.09091V9.3H5.72727V7.7ZM7.36364 8.5C7.36364 8.28783 7.44984 8.08434 7.60328 7.93431C7.75672 7.78429 7.96482 7.7 8.18182 7.7H13.0909C13.3079 7.7 13.516 7.78429 13.6695 7.93431C13.8229 8.08434 13.9091 8.28783 13.9091 8.5C13.9091 8.71217 13.8229 8.91566 13.6695 9.06569C13.516 9.21571 13.3079 9.3 13.0909 9.3H8.18182C7.96482 9.3 7.75672 9.21571 7.60328 9.06569C7.44984 8.91566 7.36364 8.71217 7.36364 8.5ZM5.72727 10.9H4.09091V12.5H5.72727V10.9ZM7.36364 11.7C7.36364 11.4878 7.44984 11.2843 7.60328 11.1343C7.75672 10.9843 7.96482 10.9 8.18182 10.9H13.0909C13.3079 10.9 13.516 10.9843 13.6695 11.1343C13.8229 11.2843 13.9091 11.4878 13.9091 11.7C13.9091 11.9122 13.8229 12.1157 13.6695 12.2657C13.516 12.4157 13.3079 12.5 13.0909 12.5H8.18182C7.96482 12.5 7.75672 12.4157 7.60328 12.2657C7.44984 12.1157 7.36364 11.9122 7.36364 11.7Z" fill="white"/>
</svg>
