<svg width="62" height="62" viewBox="0 0 62 62" fill="none" xmlns="http://www.w3.org/2000/svg">
<circle cx="31" cy="31" r="29" fill="white" stroke="url(#paint0_angular_480_5551)" stroke-width="4"/>
<g clip-path="url(#clip0_480_5551)">
<path d="M45 19C47.2091 19 49 17.2091 49 15C49 12.7909 47.2091 11 45 11C42.7909 11 41 12.7909 41 15C41 17.2091 42.7909 19 45 19Z" fill="black"/>
<path d="M44.672 31.028L35.982 32.478L42.562 24.252C42.7352 24.0354 42.8615 23.7851 42.9327 23.5171C43.004 23.249 43.0188 22.9691 42.9761 22.6951C42.9334 22.421 42.8342 22.1589 42.6847 21.9252C42.5353 21.6916 42.3389 21.4916 42.108 21.338L30.108 13.338C29.7233 13.0814 29.2615 12.9661 28.8013 13.0117C28.3411 13.0573 27.9109 13.2609 27.584 13.588L19.584 21.588L22.412 24.416L29.252 17.576L34.42 21.022L29.058 27.726C27.2415 27.0567 25.2884 26.8439 23.3704 27.1061C21.4524 27.3683 19.6282 28.0977 18.058 29.23L20.96 32.132C22.1808 31.3992 23.5762 31.0082 25 31C29.412 31 33 34.588 33 39C33 40.478 32.568 41.85 31.868 43.04L34.77 45.942C36.2202 43.9177 37 41.4901 37 39C37 38.11 36.894 37.244 36.71 36.41L43 35.362V47H47V33C47.0006 32.7094 46.9377 32.4223 46.8158 32.1586C46.6938 31.8948 46.5158 31.6609 46.2941 31.4731C46.0724 31.2853 45.8124 31.1482 45.5322 31.0713C45.2521 30.9944 44.9585 30.9796 44.672 31.028ZM25 47C20.588 47 17 43.412 17 39C17 37.522 17.432 36.15 18.132 34.96L15.23 32.058C13.7798 34.0822 13 36.5098 13 39C13 45.618 18.382 51 25 51C27.588 51 29.98 50.168 31.942 48.77L29.04 45.868C27.8192 46.6007 26.4238 46.9917 25 47Z" fill="black"/>
</g>
<defs>
<radialGradient id="paint0_angular_480_5551" cx="0" cy="0" r="1" gradientUnits="userSpaceOnUse" gradientTransform="translate(31 31) rotate(90) scale(27)">
<stop offset="0.38" stop-color="#FF0606" stop-opacity="0"/>
<stop offset="1" stop-color="#990404"/>
</radialGradient>
<clipPath id="clip0_480_5551">
<rect width="36" height="40" fill="white" transform="translate(13 11)"/>
</clipPath>
</defs>
</svg>
