<svg width="166" height="43" viewBox="0 0 166 43" fill="none" xmlns="http://www.w3.org/2000/svg">
<g opacity="0.8">
<rect x="0.5" y="0.449219" width="165" height="42" rx="8" fill="#D5D2D2"/>
<path d="M28.5568 25.9492V17.2219H31.5057C32.1903 17.2219 32.75 17.3455 33.1847 17.5927C33.6222 17.837 33.946 18.168 34.1562 18.5856C34.3665 19.0032 34.4716 19.4691 34.4716 19.9833C34.4716 20.4975 34.3665 20.9648 34.1562 21.3853C33.9489 21.8058 33.6278 22.141 33.1932 22.391C32.7585 22.6381 32.2017 22.7617 31.5227 22.7617H29.4091V21.8242H31.4886C31.9574 21.8242 32.3338 21.7433 32.6179 21.5813C32.902 21.4194 33.108 21.2006 33.2358 20.9251C33.3665 20.6467 33.4318 20.3327 33.4318 19.9833C33.4318 19.6339 33.3665 19.3214 33.2358 19.0458C33.108 18.7702 32.9006 18.5543 32.6136 18.3981C32.3267 18.239 31.946 18.1594 31.4716 18.1594H29.6136V25.9492H28.5568ZM37.9638 26.1026C37.549 26.1026 37.1726 26.0245 36.8345 25.8683C36.4964 25.7092 36.228 25.4805 36.0291 25.1822C35.8303 24.881 35.7308 24.5174 35.7308 24.0913C35.7308 23.7163 35.8047 23.4123 35.9524 23.1793C36.1001 22.9435 36.2976 22.7589 36.5447 22.6254C36.7919 22.4918 37.0646 22.3924 37.3629 22.3271C37.6641 22.2589 37.9666 22.2049 38.2706 22.1651C38.6683 22.114 38.9908 22.0756 39.2379 22.0501C39.4879 22.0217 39.6697 21.9748 39.7834 21.9094C39.8999 21.8441 39.9581 21.7305 39.9581 21.5685V21.5344C39.9581 21.114 39.843 20.7873 39.6129 20.5543C39.3857 20.3214 39.0405 20.2049 38.5774 20.2049C38.0973 20.2049 37.7209 20.31 37.4482 20.5202C37.1754 20.7305 36.9837 20.9549 36.8729 21.1935L35.9183 20.8526C36.0888 20.4549 36.3161 20.1452 36.6001 19.9237C36.8871 19.6992 37.1996 19.543 37.5376 19.4549C37.8786 19.364 38.2138 19.3185 38.5433 19.3185C38.7536 19.3185 38.995 19.3441 39.2678 19.3952C39.5433 19.4435 39.8089 19.5444 40.0646 19.6978C40.3232 19.8512 40.5376 20.0827 40.7081 20.3924C40.8786 20.7021 40.9638 21.1168 40.9638 21.6367V25.9492H39.9581V25.0629H39.907C39.8388 25.2049 39.7251 25.3569 39.5661 25.5188C39.407 25.6808 39.1953 25.8185 38.9311 25.9322C38.6669 26.0458 38.3445 26.1026 37.9638 26.1026ZM38.1172 25.1992C38.5149 25.1992 38.8501 25.1211 39.1229 24.9648C39.3984 24.8086 39.6058 24.6069 39.745 24.3597C39.8871 24.1126 39.9581 23.8526 39.9581 23.5799V22.6594C39.9155 22.7106 39.8217 22.7575 39.6768 22.8001C39.5348 22.8398 39.37 22.8754 39.1825 22.9066C38.9979 22.935 38.8175 22.9606 38.6413 22.9833C38.468 23.0032 38.3274 23.0202 38.2195 23.0344C37.9581 23.0685 37.7138 23.1239 37.4865 23.2006C37.2621 23.2745 37.0803 23.3867 36.9411 23.5373C36.8047 23.685 36.7365 23.8867 36.7365 24.1424C36.7365 24.4918 36.8658 24.756 37.1243 24.935C37.3857 25.1112 37.7166 25.1992 38.1172 25.1992ZM43.2127 28.4038C43.0423 28.4038 42.8903 28.3896 42.7567 28.3612C42.6232 28.3356 42.5309 28.31 42.4798 28.2844L42.7354 27.3981C42.9798 27.4606 43.1957 27.4833 43.3832 27.4663C43.5707 27.4492 43.7369 27.3654 43.8817 27.2148C44.0295 27.0671 44.1644 26.8271 44.2866 26.4947L44.4741 25.9833L42.0536 19.4038H43.1445L44.9513 24.6197H45.0195L46.8263 19.4038H47.9173L45.1388 26.9038C45.0138 27.2418 44.859 27.5217 44.6744 27.7433C44.4897 27.9677 44.2752 28.1339 44.0309 28.2418C43.7894 28.3498 43.5167 28.4038 43.2127 28.4038ZM51.7546 26.0856C51.1239 26.0856 50.5799 25.9464 50.1225 25.668C49.668 25.3867 49.3171 24.9947 49.07 24.4918C48.8256 23.9862 48.7035 23.3981 48.7035 22.7276C48.7035 22.0572 48.8256 21.4663 49.07 20.9549C49.3171 20.4407 49.6609 20.0401 50.1012 19.7532C50.5444 19.4634 51.0614 19.3185 51.6523 19.3185C51.9933 19.3185 52.3299 19.3754 52.6623 19.489C52.9947 19.6026 53.2972 19.7873 53.57 20.043C53.8427 20.2958 54.06 20.631 54.2219 21.0487C54.3839 21.4663 54.4648 21.9805 54.4648 22.5913V23.0174H49.4194V22.1481H53.4421C53.4421 21.7788 53.3683 21.4492 53.2205 21.1594C53.0756 20.8697 52.8683 20.641 52.5984 20.4734C52.3313 20.3058 52.016 20.2219 51.6523 20.2219C51.2518 20.2219 50.9052 20.3214 50.6126 20.5202C50.3228 20.7163 50.0998 20.9719 49.9435 21.2873C49.7873 21.6026 49.7092 21.9407 49.7092 22.3015V22.881C49.7092 23.3754 49.7944 23.7944 49.9648 24.1381C50.1381 24.479 50.3782 24.739 50.685 24.918C50.9918 25.0941 51.3484 25.1822 51.7546 25.1822C52.0188 25.1822 52.2575 25.1452 52.4705 25.0714C52.6864 24.9947 52.8725 24.881 53.0288 24.7305C53.185 24.5771 53.3058 24.3867 53.391 24.1594L54.3626 24.4322C54.2603 24.7617 54.0884 25.0515 53.8469 25.3015C53.6055 25.5487 53.3072 25.7418 52.9521 25.881C52.5969 26.0174 52.1978 26.0856 51.7546 26.0856ZM55.9947 25.9492V19.4038H56.9663V20.3924H57.0344C57.1538 20.0685 57.3697 19.8058 57.6822 19.604C57.9947 19.4023 58.3469 19.3015 58.739 19.3015C58.8129 19.3015 58.9052 19.3029 59.016 19.3058C59.1268 19.3086 59.2106 19.3129 59.2674 19.3185V20.3413C59.2333 20.3327 59.1552 20.32 59.033 20.3029C58.9137 20.283 58.7873 20.2731 58.6538 20.2731C58.3356 20.2731 58.0515 20.3398 57.8015 20.4734C57.5543 20.604 57.3583 20.7859 57.2134 21.0188C57.0714 21.2489 57.0004 21.5117 57.0004 21.8072V25.9492H55.9947ZM65.7607 26.1026C65.3459 26.1026 64.9695 26.0245 64.6314 25.8683C64.2933 25.7092 64.0249 25.4805 63.826 25.1822C63.6271 24.881 63.5277 24.5174 63.5277 24.0913C63.5277 23.7163 63.6016 23.4123 63.7493 23.1793C63.897 22.9435 64.0945 22.7589 64.3416 22.6254C64.5888 22.4918 64.8615 22.3924 65.1598 22.3271C65.4609 22.2589 65.7635 22.2049 66.0675 22.1651C66.4652 22.114 66.7876 22.0756 67.0348 22.0501C67.2848 22.0217 67.4666 21.9748 67.5803 21.9094C67.6967 21.8441 67.755 21.7305 67.755 21.5685V21.5344C67.755 21.114 67.6399 20.7873 67.4098 20.5543C67.1825 20.3214 66.8374 20.2049 66.3743 20.2049C65.8942 20.2049 65.5178 20.31 65.245 20.5202C64.9723 20.7305 64.7805 20.9549 64.6697 21.1935L63.7152 20.8526C63.8857 20.4549 64.1129 20.1452 64.397 19.9237C64.6839 19.6992 64.9964 19.543 65.3345 19.4549C65.6754 19.364 66.0107 19.3185 66.3402 19.3185C66.5504 19.3185 66.7919 19.3441 67.0646 19.3952C67.3402 19.4435 67.6058 19.5444 67.8615 19.6978C68.12 19.8512 68.3345 20.0827 68.505 20.3924C68.6754 20.7021 68.7607 21.1168 68.7607 21.6367V25.9492H67.755V25.0629H67.7038C67.6357 25.2049 67.522 25.3569 67.3629 25.5188C67.2038 25.6808 66.9922 25.8185 66.728 25.9322C66.4638 26.0458 66.1413 26.1026 65.7607 26.1026ZM65.9141 25.1992C66.3118 25.1992 66.647 25.1211 66.9197 24.9648C67.1953 24.8086 67.4027 24.6069 67.5419 24.3597C67.6839 24.1126 67.755 23.8526 67.755 23.5799V22.6594C67.7124 22.7106 67.6186 22.7575 67.4737 22.8001C67.3317 22.8398 67.1669 22.8754 66.9794 22.9066C66.7947 22.935 66.6143 22.9606 66.4382 22.9833C66.2649 23.0032 66.1243 23.0202 66.0163 23.0344C65.755 23.0685 65.5107 23.1239 65.2834 23.2006C65.0589 23.2745 64.8771 23.3867 64.7379 23.5373C64.6016 23.685 64.5334 23.8867 64.5334 24.1424C64.5334 24.4918 64.6626 24.756 64.9212 24.935C65.1825 25.1112 65.5135 25.1992 65.9141 25.1992ZM75.7141 19.4038L73.2937 25.9492H72.271L69.8505 19.4038H70.9414L72.7482 24.6197H72.8164L74.6232 19.4038H75.7141ZM79.5515 26.0856C78.9208 26.0856 78.3768 25.9464 77.9194 25.668C77.4648 25.3867 77.114 24.9947 76.8668 24.4918C76.6225 23.9862 76.5004 23.3981 76.5004 22.7276C76.5004 22.0572 76.6225 21.4663 76.8668 20.9549C77.114 20.4407 77.4577 20.0401 77.8981 19.7532C78.3413 19.4634 78.8583 19.3185 79.4492 19.3185C79.7901 19.3185 80.1268 19.3754 80.4592 19.489C80.7915 19.6026 81.0941 19.7873 81.3668 20.043C81.6396 20.2958 81.8569 20.631 82.0188 21.0487C82.1808 21.4663 82.2617 21.9805 82.2617 22.5913V23.0174H77.2163V22.1481H81.239C81.239 21.7788 81.1651 21.4492 81.0174 21.1594C80.8725 20.8697 80.6651 20.641 80.3952 20.4734C80.1282 20.3058 79.8129 20.2219 79.4492 20.2219C79.0487 20.2219 78.7021 20.3214 78.4094 20.5202C78.1197 20.7163 77.8967 20.9719 77.7404 21.2873C77.5842 21.6026 77.506 21.9407 77.506 22.3015V22.881C77.506 23.3754 77.5913 23.7944 77.7617 24.1381C77.935 24.479 78.1751 24.739 78.4819 24.918C78.7887 25.0941 79.1452 25.1822 79.5515 25.1822C79.8157 25.1822 80.0543 25.1452 80.2674 25.0714C80.4833 24.9947 80.6694 24.881 80.8256 24.7305C80.9819 24.5771 81.1026 24.3867 81.1879 24.1594L82.1594 24.4322C82.0572 24.7617 81.8853 25.0515 81.6438 25.3015C81.4023 25.5487 81.104 25.7418 80.7489 25.881C80.3938 26.0174 79.9947 26.0856 79.5515 26.0856ZM86.4506 26.0856C85.837 26.0856 85.3086 25.9407 84.8654 25.6509C84.4222 25.3612 84.0813 24.962 83.8427 24.4535C83.604 23.945 83.4847 23.364 83.4847 22.7106C83.4847 22.0458 83.6069 21.4592 83.8512 20.9506C84.0984 20.4393 84.4421 20.0401 84.8825 19.7532C85.3256 19.4634 85.8427 19.3185 86.4336 19.3185C86.8938 19.3185 87.3086 19.4038 87.6779 19.5742C88.0472 19.7447 88.3498 19.9833 88.5856 20.2901C88.8214 20.5969 88.9677 20.9549 89.0245 21.364H88.0188C87.9421 21.0657 87.7717 20.8015 87.5075 20.5714C87.2461 20.3384 86.8938 20.2219 86.4506 20.2219C86.0586 20.2219 85.7148 20.3242 85.4194 20.5288C85.1268 20.7305 84.8981 21.016 84.7333 21.3853C84.5714 21.7518 84.4904 22.1822 84.4904 22.6765C84.4904 23.1822 84.57 23.6225 84.729 23.9975C84.891 24.3725 85.1183 24.6637 85.4109 24.8711C85.7063 25.0785 86.0529 25.1822 86.4506 25.1822C86.712 25.1822 86.9492 25.1367 87.1623 25.0458C87.3754 24.9549 87.5558 24.8242 87.7035 24.6538C87.8512 24.4833 87.9563 24.2788 88.0188 24.0401H89.0245C88.9677 24.4265 88.8271 24.7745 88.6026 25.0842C88.381 25.391 88.087 25.6353 87.7205 25.8171C87.3569 25.9961 86.9336 26.0856 86.4506 26.0856Z" fill="black"/>
<g clip-path="url(#clip0_192_3892)">
<path d="M139.833 34.4492H105.167C104.459 34.4492 103.781 34.1753 103.281 33.6877C102.781 33.2001 102.5 32.5388 102.5 31.8492V11.0492C102.5 10.3597 102.781 9.69834 103.281 9.21074C103.781 8.72315 104.459 8.44922 105.167 8.44922H139.833C140.541 8.44922 141.219 8.72315 141.719 9.21074C142.219 9.69834 142.5 10.3597 142.5 11.0492V31.8492C142.5 32.5388 142.219 33.2001 141.719 33.6877C141.219 34.1753 140.541 34.4492 139.833 34.4492ZM118.091 19.6346C118.061 19.6347 118.031 19.6416 118.003 19.6547C117.976 19.6679 117.952 19.6869 117.933 19.7105C117.89 19.7539 117.865 19.8121 117.863 19.873C117.863 19.8957 117.972 20.2196 118.206 20.8837L118.71 22.3202L118.944 22.9897C119.207 23.7408 119.345 24.1402 119.357 24.1879C118.84 24.8124 118.372 25.4745 117.958 26.1682L117.916 26.2441L117.913 26.2711C117.913 26.3795 118.003 26.4683 118.116 26.4683L118.146 26.4661H118.144H119.498C119.561 26.4653 119.623 26.449 119.677 26.419C119.732 26.3889 119.779 26.3459 119.812 26.2939L119.813 26.2928L124.293 19.9889C124.317 19.9587 124.33 19.9218 124.33 19.8838L124.329 19.8676V19.8686C124.328 19.8077 124.303 19.7496 124.259 19.7061C124.24 19.6827 124.217 19.6638 124.19 19.6506C124.162 19.6375 124.133 19.6305 124.102 19.6303H122.748C122.685 19.631 122.623 19.6471 122.567 19.6772C122.512 19.7073 122.466 19.7504 122.432 19.8026L122.431 19.8036L120.564 22.4751L119.792 19.9055C119.772 19.8272 119.726 19.7576 119.661 19.7077C119.596 19.6579 119.516 19.6306 119.433 19.6303L119.404 19.6314H119.406L118.091 19.6346ZM133.622 19.5144H133.593C132.751 19.5144 131.994 19.8708 131.472 20.4363L131.47 20.4385C130.899 21.0147 130.581 21.7846 130.581 22.5856V22.6149V22.6138C130.58 22.6463 130.579 22.6817 130.579 22.72C130.579 23.3017 130.811 23.8315 131.189 24.2247L131.188 24.2236C131.403 24.4278 131.658 24.5865 131.939 24.6898C132.22 24.7931 132.519 24.8387 132.819 24.8238H132.813C133.188 24.8195 133.543 24.7447 133.868 24.6104L133.85 24.6169C134.178 24.4966 134.456 24.3092 134.674 24.0709L134.677 24.0687C134.666 24.1294 134.653 24.1839 134.639 24.2323L134.641 24.2215C134.623 24.2881 134.611 24.3563 134.606 24.4251V24.4273C134.606 24.6093 134.682 24.7007 134.834 24.7014H136.047C136.094 24.7055 136.142 24.7004 136.187 24.6862C136.232 24.6721 136.274 24.6492 136.31 24.619C136.346 24.5889 136.376 24.5519 136.397 24.5104C136.418 24.4689 136.43 24.4237 136.433 24.3775V24.3764L137.153 19.9055C137.16 19.8717 137.159 19.837 137.15 19.8038C137.141 19.7705 137.124 19.7398 137.101 19.7137C137.081 19.6872 137.054 19.6657 137.024 19.6506C136.994 19.6356 136.961 19.6276 136.927 19.6271H135.59C135.427 19.6271 135.323 19.8166 135.29 20.1926C135.094 19.948 134.837 19.7569 134.543 19.6378C134.25 19.5188 133.929 19.4759 133.613 19.5133L133.622 19.5122V19.5144ZM113.663 19.5144H113.632C112.791 19.5144 112.034 19.8708 111.514 20.4363L111.512 20.4385C110.941 21.0147 110.623 21.7846 110.623 22.5856V22.6149V22.6138C110.608 22.9083 110.655 23.2027 110.759 23.4793C110.864 23.756 111.025 24.0091 111.232 24.2236L111.231 24.2226C111.624 24.5952 112.162 24.8249 112.756 24.8249L112.862 24.8227H112.857C113.226 24.8173 113.576 24.7426 113.894 24.6093L113.877 24.6158C114.209 24.4923 114.491 24.306 114.719 24.0687L114.72 24.0676C114.679 24.1738 114.653 24.2973 114.65 24.4251V24.4273C114.651 24.6093 114.727 24.7007 114.879 24.7014H116.09C116.137 24.7055 116.185 24.7004 116.23 24.6862C116.276 24.6721 116.317 24.6492 116.353 24.619C116.39 24.5889 116.419 24.5519 116.44 24.5104C116.461 24.4689 116.474 24.4237 116.477 24.3775V24.3764L117.198 19.9055C117.204 19.872 117.202 19.8376 117.193 19.8048C117.184 19.772 117.167 19.7416 117.144 19.7159C117.124 19.6894 117.098 19.6678 117.068 19.6528C117.037 19.6378 117.004 19.6297 116.97 19.6292H115.633C115.47 19.6292 115.367 19.8188 115.334 20.1947C115.137 19.9522 114.879 19.7625 114.586 19.6435C114.292 19.5245 113.973 19.4801 113.657 19.5144L113.666 19.5133L113.663 19.5144ZM138.736 17.1159L138.718 17.1148C138.665 17.1146 138.614 17.1339 138.574 17.1688C138.535 17.2038 138.511 17.2518 138.507 17.3033L137.364 24.4306C137.355 24.4649 137.355 24.5009 137.364 24.5353C137.373 24.5697 137.391 24.6011 137.417 24.6266C137.438 24.6509 137.464 24.6704 137.493 24.6837C137.523 24.6969 137.555 24.7037 137.588 24.7036H138.754L138.79 24.7057C138.878 24.7057 138.963 24.6715 139.026 24.6105C139.088 24.5496 139.123 24.4669 139.123 24.3807V24.3786L140.263 17.3748L140.264 17.351C140.265 17.2892 140.244 17.229 140.206 17.1798V17.1809C140.165 17.1397 140.109 17.1159 140.05 17.1148L140.033 17.1159H138.736ZM125.769 17.1159C125.721 17.1101 125.673 17.1141 125.627 17.1277C125.581 17.1412 125.538 17.1639 125.502 17.1944C125.466 17.2249 125.436 17.2625 125.416 17.3048C125.395 17.347 125.384 17.393 125.382 17.4398L124.241 24.4295C124.235 24.4627 124.236 24.4969 124.245 24.5295C124.254 24.5621 124.271 24.5923 124.293 24.618C124.313 24.6449 124.339 24.6669 124.369 24.682C124.399 24.697 124.433 24.7048 124.467 24.7046H125.917C125.982 24.7052 126.045 24.6834 126.096 24.643C126.146 24.6026 126.18 24.5462 126.192 24.4836V24.4815L126.509 22.4946C126.513 22.4515 126.526 22.4096 126.548 22.3714C126.569 22.3333 126.598 22.2997 126.632 22.2726C126.708 22.2135 126.8 22.175 126.897 22.161H126.9C126.99 22.1447 127.093 22.1361 127.199 22.135C127.292 22.135 127.404 22.1407 127.533 22.1523C127.674 22.1683 127.816 22.1756 127.958 22.174C128.772 22.1753 129.556 21.8761 130.153 21.3366L130.151 21.3387C130.449 21.0309 130.679 20.6668 130.827 20.2691C130.975 19.8713 131.037 19.4482 131.011 19.0258V19.0345C131.035 18.7552 130.986 18.4745 130.868 18.2187C130.751 17.963 130.569 17.7404 130.339 17.572L130.334 17.5687C129.804 17.2418 129.183 17.0832 128.557 17.1148H128.563L125.769 17.1159ZM105.789 17.1159C105.742 17.111 105.695 17.1157 105.651 17.1298C105.606 17.1438 105.565 17.1667 105.531 17.1972C105.496 17.2276 105.468 17.2649 105.449 17.3065C105.43 17.3481 105.42 17.3931 105.42 17.4387V17.4409L104.278 24.4306C104.272 24.4638 104.273 24.4979 104.282 24.5305C104.291 24.5631 104.307 24.5934 104.33 24.6191C104.35 24.646 104.376 24.668 104.406 24.683C104.436 24.6981 104.469 24.7059 104.503 24.7057H105.841C105.889 24.7115 105.937 24.7075 105.983 24.6939C106.029 24.6804 106.072 24.6577 106.108 24.6272C106.144 24.5967 106.174 24.5591 106.194 24.5168C106.215 24.4746 106.226 24.4286 106.228 24.3818L106.544 22.4979C106.549 22.4548 106.562 22.413 106.583 22.3748C106.604 22.3367 106.632 22.303 106.667 22.2758C106.743 22.2168 106.835 22.1783 106.931 22.1642H106.934C107.033 22.1474 107.132 22.1387 107.232 22.1382H107.233C107.327 22.1382 107.438 22.144 107.567 22.1556C107.707 22.1715 107.849 22.1788 107.99 22.1772C108.838 22.1772 109.609 21.8598 110.187 21.3398L110.184 21.342C110.482 21.0341 110.712 20.6701 110.86 20.2723C111.008 19.8745 111.071 19.4514 111.044 19.0291V19.0377C111.068 18.7584 111.019 18.4778 110.902 18.222C110.784 17.9662 110.602 17.7437 110.372 17.5752L110.368 17.572C109.84 17.2462 109.222 17.0873 108.598 17.117H108.604L105.789 17.1159ZM133.549 23.4371L133.496 23.4382C133.212 23.4385 132.937 23.3406 132.72 23.162L132.722 23.1631C132.623 23.0725 132.543 22.963 132.488 22.8413C132.434 22.7197 132.405 22.5884 132.404 22.4556L132.406 22.4069V22.3776C132.406 21.9725 132.573 21.6052 132.846 21.3387C133.113 21.0711 133.487 20.9054 133.9 20.9054H133.937H133.934L133.972 20.9043C134.271 20.9043 134.543 21.0116 134.752 21.1881L134.751 21.1871C134.854 21.2803 134.936 21.3933 134.993 21.5189C135.049 21.6446 135.078 21.7802 135.078 21.9172L135.077 21.9692V21.9671V21.9931C135.077 22.3928 134.907 22.7546 134.632 23.0114C134.494 23.1461 134.329 23.2528 134.148 23.3255C133.967 23.3982 133.773 23.4354 133.578 23.435H133.55L133.549 23.4371ZM113.572 23.4371L113.517 23.4382C113.226 23.4382 112.958 23.3342 112.753 23.162L112.754 23.1631C112.657 23.072 112.579 22.9625 112.526 22.8413C112.473 22.7201 112.445 22.5896 112.446 22.4578L112.447 22.4069V22.3776C112.447 21.9725 112.614 21.6052 112.887 21.3387C113.154 21.0711 113.527 20.9054 113.94 20.9054H113.979H113.977L114.014 20.9043C114.313 20.9043 114.586 21.0116 114.794 21.1881L114.793 21.1871C114.896 21.2803 114.978 21.3931 115.034 21.5186C115.09 21.644 115.119 21.7793 115.119 21.9161L115.118 21.9692V21.9671V22.005C115.118 22.4047 114.948 22.7644 114.673 23.0211C114.389 23.2887 114.009 23.4379 113.613 23.4371H113.572ZM126.802 20.6638L127.101 18.8319C127.103 18.8049 127.111 18.7787 127.124 18.7546C127.137 18.7306 127.154 18.7093 127.176 18.6919C127.197 18.6745 127.222 18.6613 127.248 18.6532C127.274 18.6451 127.302 18.6421 127.33 18.6445H127.646L127.713 18.6434C127.906 18.6434 128.095 18.656 128.281 18.6813L128.26 18.6791C128.432 18.7095 128.582 18.7853 128.7 18.8936C128.768 18.9551 128.821 19.0296 128.858 19.1124C128.895 19.1952 128.913 19.2845 128.912 19.3746L128.911 19.4158V19.4136C128.935 19.5946 128.912 19.7785 128.845 19.9488C128.778 20.1191 128.668 20.2706 128.527 20.3897L128.526 20.3908C128.171 20.5878 127.766 20.6782 127.359 20.6508H127.366L126.804 20.6681L126.802 20.6638ZM106.826 20.6638L107.124 18.8319C107.127 18.8049 107.135 18.7787 107.147 18.7546C107.16 18.7306 107.178 18.7093 107.199 18.6919C107.22 18.6745 107.245 18.6613 107.271 18.6532C107.298 18.6451 107.326 18.6421 107.353 18.6445H107.686C108.041 18.6193 108.397 18.689 108.716 18.846L108.704 18.8406C108.915 18.9727 108.985 19.2493 108.916 19.6704C108.911 19.8274 108.867 19.9809 108.788 20.1178C108.709 20.2548 108.597 20.3711 108.462 20.4569L108.459 20.4591C107.932 20.6491 107.368 20.7188 106.81 20.6627L106.826 20.6638Z" fill="#27346A"/>
</g>
</g>
<defs>
<clipPath id="clip0_192_3892">
<rect width="40" height="26" fill="white" transform="translate(102.5 8.44922)"/>
</clipPath>
</defs>
</svg>
