<svg width="62" height="62" viewBox="0 0 62 62" fill="none" xmlns="http://www.w3.org/2000/svg">
<circle cx="31" cy="31" r="29" fill="white" stroke="url(#paint0_angular_480_5527)" stroke-width="4"/>
<path d="M45.9999 27.3637C45.9999 27.0652 45.9412 26.7697 45.8269 26.494C45.7127 26.2182 45.5453 25.9677 45.3343 25.7566C45.1232 25.5456 44.8727 25.3782 44.5969 25.264C44.3212 25.1498 44.0257 25.091 43.7272 25.091C43.4288 25.091 43.1332 25.1498 42.8575 25.264C42.5817 25.3782 42.3312 25.5456 42.1202 25.7566C41.9091 25.9677 41.7417 26.2182 41.6275 26.494C41.5133 26.7697 41.4545 27.0652 41.4545 27.3637H45.9999ZM20.5454 27.3637C20.5454 26.7609 20.306 26.1829 19.8797 25.7566C19.4535 25.3304 18.8754 25.091 18.2727 25.091C17.6699 25.091 17.0918 25.3304 16.6656 25.7566C16.2394 26.1829 15.9999 26.7609 15.9999 27.3637H20.5454ZM45.7563 32.6073C46.1826 33.0336 46.7607 33.2731 47.3636 33.2731C47.9664 33.2731 48.5446 33.0336 48.9709 32.6073C49.3971 32.1811 49.6366 31.6029 49.6366 31.0001C49.6366 30.3972 49.3971 29.8191 48.9709 29.3928L45.7563 32.6073ZM30.9999 14.6364L32.6072 13.0292C32.3962 12.8181 32.1456 12.6506 31.8698 12.5363C31.594 12.4221 31.2985 12.3633 30.9999 12.3633C30.7014 12.3633 30.4058 12.4221 30.1301 12.5363C29.8543 12.6506 29.6037 12.8181 29.3927 13.0292L30.9999 14.6364ZM13.029 29.3928C12.6028 29.8191 12.3633 30.3972 12.3633 31.0001C12.3633 31.6029 12.6028 32.1811 13.029 32.6073C13.4553 33.0336 14.0335 33.2731 14.6363 33.2731C15.2392 33.2731 15.8173 33.0336 16.2436 32.6073L13.029 29.3928ZM21.909 49.6364H40.0909V45.091H21.909V49.6364ZM45.9999 43.7273V27.3637H41.4545V43.7273H45.9999ZM20.5454 43.7273V27.3637H15.9999V43.7273H20.5454ZM48.9709 29.3928L32.6072 13.0292L29.3927 16.2437L45.7563 32.6073L48.9709 29.3928ZM29.3927 13.0292L13.029 29.3928L16.2436 32.6073L32.6072 16.2437L29.3927 13.0292ZM40.0909 49.6364C41.658 49.6364 43.161 49.0139 44.2692 47.9057C45.3774 46.7975 45.9999 45.2945 45.9999 43.7273H41.4545C41.4545 44.089 41.3108 44.4358 41.0551 44.6916C40.7994 44.9473 40.4525 45.091 40.0909 45.091V49.6364ZM21.909 45.091C21.5474 45.091 21.2005 44.9473 20.9448 44.6916C20.6891 44.4358 20.5454 44.089 20.5454 43.7273H15.9999C15.9999 45.2945 16.6225 46.7975 17.7307 47.9057C18.8388 49.0139 20.3418 49.6364 21.909 49.6364V45.091Z" fill="black"/>
<defs>
<radialGradient id="paint0_angular_480_5527" cx="0" cy="0" r="1" gradientUnits="userSpaceOnUse" gradientTransform="translate(31 31) rotate(90) scale(27)">
<stop offset="0.377292" stop-color="#0047FF" stop-opacity="0"/>
<stop offset="1" stop-color="#0047FF"/>
</radialGradient>
</defs>
</svg>
