<svg width="46" height="42" viewBox="0 0 46 42" fill="none" xmlns="http://www.w3.org/2000/svg">
<g clip-path="url(#clip0_321_4585)">
<path d="M26.551 34.2812L15.0442 30.093C14.7173 29.974 14.4511 29.7301 14.3041 29.4149C14.1571 29.0996 14.1414 28.7389 14.2603 28.4121L22.11 6.84519C22.229 6.51833 22.4729 6.25213 22.7882 6.10513C23.1034 5.95813 23.4641 5.94238 23.791 6.06135L35.2978 10.2495C35.6247 10.3685 35.8909 10.6124 36.0379 10.9276C36.1849 11.2429 36.2006 11.6036 36.0817 11.9304L28.232 33.4973C28.113 33.8242 27.8691 34.0904 27.5538 34.2374C27.2386 34.3844 26.8779 34.4001 26.551 34.2812ZM27.4104 8.45475L29.6459 9.26842L27.4104 8.45475Z" fill="#F31515"/>
<path d="M27.4104 8.45475L29.6459 9.26842M26.551 34.2812L15.0442 30.093C14.7173 29.974 14.4511 29.7301 14.3041 29.4149C14.1571 29.0996 14.1414 28.7389 14.2603 28.4121L22.11 6.84519C22.229 6.51833 22.4729 6.25213 22.7882 6.10513C23.1034 5.95813 23.4641 5.94238 23.791 6.06135L35.2978 10.2495C35.6247 10.3685 35.8909 10.6124 36.0379 10.9276C36.1849 11.2429 36.2006 11.6036 36.0817 11.9304L28.232 33.4973C28.113 33.8242 27.8691 34.0904 27.5538 34.2374C27.2386 34.3844 26.8779 34.4001 26.551 34.2812Z" stroke="black" stroke-width="0.786891" stroke-linecap="round" stroke-linejoin="round"/>
<path d="M30.5935 10.1682C30.8487 10.2611 31.131 10.1295 31.2239 9.87425C31.3168 9.61901 31.1852 9.33679 30.9299 9.24389C30.6747 9.15099 30.3925 9.28259 30.2996 9.53783C30.2067 9.79307 30.3383 10.0753 30.5935 10.1682Z" fill="black"/>
<path d="M24.3138 13.5254L21.9698 12.6723L21.1166 15.0163M31.5919 18.829L32.4451 16.485L30.1011 15.6318M26.2884 26.1072L28.6324 26.9603L29.4855 24.6163M19.0102 20.8036L18.157 23.1476L20.5011 24.0007M33.8901 9.73676L33.5185 9.60152C33.4108 9.56228 33.2947 9.55196 33.1818 9.57159C33.0688 9.59122 32.963 9.6401 32.8749 9.71338L31.8916 10.532C31.7154 10.6786 31.5037 10.7764 31.2779 10.8156C31.052 10.8549 30.8198 10.8342 30.6044 10.7558L27.0625 9.46661C26.847 9.38827 26.6559 9.25482 26.5081 9.07956C26.3603 8.90431 26.261 8.69338 26.2202 8.4678L25.9932 7.20865C25.9728 7.09586 25.9231 6.99039 25.8492 6.90276C25.7754 6.81514 25.6798 6.74841 25.5721 6.70924L25.2005 6.574M21.2447 19.1124L20.1112 22.2266L23.2255 23.3601L24.359 20.2459L21.2447 19.1124ZM22.879 14.6222L21.7455 17.7364L24.8598 18.8699L25.9933 15.7556L22.879 14.6222ZM27.3692 16.2565L26.2357 19.3707L29.35 20.5042L30.4835 17.39L27.3692 16.2565ZM26.1605 24.4416C26.5755 24.5097 27.0012 24.4255 27.3591 24.2045C27.9115 23.898 28.3289 23.3956 28.529 22.7964L28.8609 21.8844L25.7466 20.7509L25.4147 21.6629C25.1828 22.2505 25.1796 22.9037 25.4058 23.4935C25.5358 23.8894 25.8039 24.2259 26.1605 24.4416Z" stroke="black" stroke-width="0.393445" stroke-linecap="round" stroke-linejoin="round"/>
</g>
<g clip-path="url(#clip1_321_4585)">
<path d="M30.2888 30.7636L18.7819 34.9518C18.4551 35.0707 18.0944 35.055 17.7791 34.908C17.4639 34.761 17.22 34.4948 17.101 34.1679L9.25129 12.601C9.13232 12.2742 9.14807 11.9135 9.29507 11.5982C9.44207 11.283 9.70828 11.0391 10.0351 10.9201L21.542 6.73195C21.8688 6.61298 22.2296 6.62873 22.5448 6.77573C22.86 6.92273 23.104 7.18893 23.2229 7.51578L31.0726 29.0827C31.1916 29.4095 31.1758 29.7702 31.0288 30.0855C30.8818 30.4007 30.6156 30.6446 30.2888 30.7636ZM14.3462 10.427L16.5817 9.61337L14.3462 10.427Z" fill="#E6CF03"/>
<path d="M14.3462 10.427L16.5817 9.61337M30.2888 30.7636L18.7819 34.9518C18.4551 35.0707 18.0944 35.055 17.7791 34.908C17.4639 34.761 17.22 34.4948 17.101 34.1679L9.25129 12.601C9.13232 12.2742 9.14807 11.9135 9.29507 11.5982C9.44207 11.283 9.70828 11.0391 10.0351 10.9201L21.542 6.73195C21.8688 6.61298 22.2296 6.62873 22.5448 6.77573C22.86 6.92273 23.104 7.18893 23.2229 7.51578L31.0726 29.0827C31.1916 29.4095 31.1758 29.7702 31.0288 30.0855C30.8818 30.4007 30.6156 30.6446 30.2888 30.7636Z" stroke="black" stroke-width="0.786891" stroke-linecap="round" stroke-linejoin="round"/>
<path d="M17.8865 9.69359C18.1417 9.60069 18.2733 9.31847 18.1804 9.06323C18.0875 8.80799 17.8053 8.67639 17.55 8.76929C17.2948 8.86219 17.1632 9.14441 17.2561 9.39965C17.349 9.65488 17.6312 9.78649 17.8865 9.69359Z" fill="black"/>
<path d="M15.2336 16.302L12.8896 17.1552L13.7428 19.4992M24.2181 15.6865L23.365 13.3425L21.0209 14.1956M24.8337 24.6709L27.1777 23.8178L26.3245 21.4738M15.8492 25.2865L16.7023 27.6305L19.0463 26.7774M20.1342 7.2442L19.7627 7.37944C19.6549 7.41861 19.5594 7.48534 19.4855 7.57296C19.4116 7.66059 19.3619 7.76606 19.3415 7.87885L19.1145 9.138C19.0737 9.36358 18.9744 9.57451 18.8266 9.74976C18.6788 9.92502 18.4877 10.0585 18.2722 10.1368L14.7303 11.426C14.5149 11.5044 14.2827 11.5251 14.0569 11.4858C13.831 11.4466 13.6194 11.3488 13.4431 11.2022L12.4598 10.3836C12.3717 10.3103 12.2659 10.2614 12.1529 10.2418C12.04 10.2222 11.9239 10.2325 11.8162 10.2717L11.4446 10.407M16.4738 22.5546L17.6073 25.6689L20.7216 24.5354L19.5881 21.4211L16.4738 22.5546ZM14.8395 18.0644L15.973 21.1787L19.0873 20.0452L17.9538 16.9309L14.8395 18.0644ZM19.3297 16.4301L20.4632 19.5444L23.5775 18.4109L22.444 15.2966L19.3297 16.4301ZM23.6651 23.4773C24.0268 23.2626 24.2988 22.9245 24.4309 22.5252C24.657 21.9353 24.6539 21.2821 24.4219 20.6945L24.09 19.7826L20.9758 20.9161L21.3077 21.828C21.5077 22.4272 21.9252 22.9297 22.4775 23.2361C22.8317 23.4558 23.2533 23.5412 23.6651 23.4773Z" stroke="black" stroke-width="0.393445" stroke-linecap="round" stroke-linejoin="round"/>
</g>
<defs>
<clipPath id="clip0_321_4585">
<rect width="31.4756" height="31.4756" fill="white" transform="translate(15.7656) rotate(20)"/>
</clipPath>
<clipPath id="clip1_321_4585">
<rect width="31.4756" height="31.4756" fill="white" transform="translate(-0.00878906 11.4355) rotate(-20)"/>
</clipPath>
</defs>
</svg>
