<svg width="41" height="41" viewBox="0 0 41 41" fill="none" xmlns="http://www.w3.org/2000/svg">
<g clip-path="url(#clip0_337_966)">
<path d="M2.72217 2.72222H6.3355C7.5955 2.72222 8.22439 2.72222 8.72661 2.99778C8.93366 3.11176 9.12121 3.25804 9.28217 3.43111C9.67106 3.85111 9.82439 4.46222 10.1288 5.68444L10.5333 7.3C10.7577 8.19778 10.8711 8.64667 11.0444 9.02444C11.3407 9.6691 11.787 10.2334 12.346 10.6703C12.9051 11.1072 13.5606 11.4039 14.2577 11.5356C14.6666 11.6111 15.1288 11.6111 16.0555 11.6111" stroke="black" stroke-width="4" stroke-linecap="round"/>
<path d="M33.8333 31.6111H10.6111C10.2889 31.6111 10.1266 31.6111 10.0022 31.5978C9.69364 31.5634 9.39573 31.4647 9.12765 31.3081C8.85958 31.1514 8.6273 30.9404 8.44578 30.6885C8.26426 30.4367 8.13752 30.1496 8.07375 29.8457C8.00998 29.5419 8.01058 29.228 8.07552 28.9244C8.12662 28.7277 8.18668 28.5334 8.25552 28.3422C8.37108 28 8.42663 27.8289 8.49108 27.6756C8.80741 26.9179 9.32745 26.2626 9.9935 25.7825C10.6596 25.3024 11.4456 25.0162 12.2644 24.9556C12.4289 24.9444 12.6111 24.9444 12.9689 24.9444H24.9444" stroke="black" stroke-width="4" stroke-linecap="round" stroke-linejoin="round"/>
<path d="M26.1178 24.9444H18.2201C15.5178 24.9444 14.1667 24.9444 13.1245 24.3333C12.6851 24.0748 12.2934 23.7425 11.9667 23.3511C11.1889 22.4222 10.9667 21.0889 10.5245 18.4244C10.0734 15.7244 9.84894 14.3733 10.3845 13.3733C10.6073 12.956 10.9164 12.5909 11.2912 12.3022C12.1889 11.6111 13.5578 11.6111 16.2956 11.6111H31.0867C34.3089 11.6111 35.9201 11.6111 36.5734 12.6644C37.2245 13.72 36.5023 15.16 35.0623 18.0422L34.0689 20.0311C32.8734 22.4222 32.2756 23.6178 31.2023 24.28C30.1267 24.9444 28.7912 24.9444 26.1178 24.9444Z" stroke="black" stroke-width="4" stroke-linecap="round"/>
<path d="M31.6109 40.5C32.8382 40.5 33.8331 39.5051 33.8331 38.2778C33.8331 37.0505 32.8382 36.0556 31.6109 36.0556C30.3836 36.0556 29.3887 37.0505 29.3887 38.2778C29.3887 39.5051 30.3836 40.5 31.6109 40.5Z" fill="black"/>
<path d="M13.8331 40.5C15.0604 40.5 16.0553 39.5051 16.0553 38.2778C16.0553 37.0505 15.0604 36.0556 13.8331 36.0556C12.6058 36.0556 11.6108 37.0505 11.6108 38.2778C11.6108 39.5051 12.6058 40.5 13.8331 40.5Z" fill="black"/>
</g>
<defs>
<clipPath id="clip0_337_966">
<rect width="40" height="40" fill="white" transform="translate(0.5 0.5)"/>
</clipPath>
</defs>
</svg>
