<svg width="33" height="41" viewBox="0 0 33 41" fill="none" xmlns="http://www.w3.org/2000/svg">
<g clip-path="url(#clip0_337_5559)">
<path d="M5.98644 21.45C6.47464 21.1592 7.0355 20.9616 7.69377 20.8781C10.1829 23.0554 13.1449 24.1667 16.5 24.1667C19.8551 24.1667 22.8171 23.0554 25.3062 20.8781C25.9645 20.9616 26.5254 21.1592 27.0136 21.45C27.7647 21.8975 28.3435 22.4569 28.7797 23.1334C29.2669 23.8888 29.6986 24.8447 30.0519 26.0315C30.4149 27.2514 30.6609 28.4541 30.7932 29.6408C30.9302 30.87 31 32.1887 31 33.599C31 35.0855 30.5885 36.2593 29.8218 37.2258C29.0658 38.1789 28.3185 38.5 27.5086 38.5H5.49141C4.6815 38.5 3.93424 38.1789 3.1782 37.2258C2.41151 36.2593 2 35.0855 2 33.599C2 32.1887 2.06983 30.87 2.20683 29.6408C2.3391 28.4541 2.58505 27.2514 2.94814 26.0315C3.30138 24.8447 3.73314 23.8888 4.22027 23.1334C4.65653 22.4569 5.23527 21.8975 5.98644 21.45ZM24.4 10.5C24.4 12.7361 23.6393 14.5864 22.0783 16.1632C20.5179 17.7394 18.6955 18.5 16.5 18.5C14.3045 18.5 12.4821 17.7394 10.9217 16.1632C9.36066 14.5864 8.6 12.7361 8.6 10.5C8.6 8.26394 9.36066 6.41358 10.9217 4.83678C12.4821 3.26065 14.3045 2.5 16.5 2.5C18.6955 2.5 20.5179 3.26065 22.0783 4.83678C23.6393 6.41358 24.4 8.26394 24.4 10.5Z" stroke="black" stroke-width="4"/>
</g>
<defs>
<clipPath id="clip0_337_5559">
<rect width="33" height="40" fill="white" transform="translate(0 0.5)"/>
</clipPath>
</defs>
</svg>
