<svg width="34" height="40" viewBox="0 0 34 40" fill="none" xmlns="http://www.w3.org/2000/svg">
<g clip-path="url(#clip0_137_2036)">
<path d="M32 33.099C32 34.687 31.5571 35.9731 30.7135 37.0365C29.8779 38.0899 28.9941 38.5 28.0086 38.5H5.99141C5.00585 38.5 4.12207 38.0899 3.28648 37.0365C2.44291 35.9731 2 34.687 2 33.099C2 31.6724 2.07064 30.335 2.20991 29.0854C2.34564 27.8677 2.59777 26.6358 2.96892 25.3889C3.33268 24.1667 3.78218 23.1655 4.30007 22.3624C4.7798 21.6185 5.4158 21.0058 6.23056 20.5204C6.84055 20.1571 7.5422 19.929 8.36059 19.8576C10.7934 22.0515 13.6945 23.1667 17 23.1667C20.3055 23.1667 23.2066 22.0515 25.6394 19.8576C26.4578 19.929 27.1595 20.1571 27.7694 20.5204C28.5842 21.0058 29.2202 21.6185 29.6999 22.3624C30.2178 23.1655 30.6673 24.1667 31.0311 25.3889C31.4022 26.6358 31.6544 27.8677 31.7901 29.0854C31.9294 30.335 32 31.6724 32 33.099ZM25.4 10C25.4 12.3672 24.5878 14.3441 22.9336 16.015C21.28 17.6854 19.3298 18.5 17 18.5C14.6702 18.5 12.72 17.6854 11.0664 16.015C9.41219 14.3441 8.6 12.3672 8.6 10C8.6 7.63285 9.41219 5.65589 11.0664 3.985C12.72 2.31463 14.6702 1.5 17 1.5C19.3298 1.5 21.28 2.31463 22.9336 3.985C24.5878 5.65589 25.4 7.63285 25.4 10Z" fill="black" stroke="white" stroke-width="3"/>
</g>
<defs>
<clipPath id="clip0_137_2036">
<rect width="33" height="40" fill="white" transform="translate(0.5)"/>
</clipPath>
</defs>
</svg>
