<svg width="34" height="35" viewBox="0 0 34 35" fill="none" xmlns="http://www.w3.org/2000/svg">
<path d="M23.6138 31.7153H10.3864C10.0107 31.7153 9.65033 31.5661 9.38466 31.3004C9.11898 31.0347 8.96973 30.6744 8.96973 30.2987V5.507C8.96973 5.13128 9.11898 4.77094 9.38466 4.50526C9.65033 4.23959 10.0107 4.09033 10.3864 4.09033H23.6138C23.9895 4.09033 24.3499 4.23959 24.6155 4.50526C24.8812 4.77094 25.0305 5.13128 25.0305 5.507V30.2987C25.0305 30.6744 24.8812 31.0347 24.6155 31.3004C24.3499 31.5661 23.9895 31.7153 23.6138 31.7153ZM14.9445 5.18258H17.5144Z" fill="#E6CF03"/>
<path d="M14.9445 5.18258H17.5144M23.6138 31.7153H10.3864C10.0107 31.7153 9.65033 31.5661 9.38466 31.3004C9.11898 31.0347 8.96973 30.6744 8.96973 30.2987V5.507C8.96973 5.13128 9.11898 4.77094 9.38466 4.50526C9.65033 4.23959 10.0107 4.09033 10.3864 4.09033H23.6138C23.9895 4.09033 24.3499 4.23959 24.6155 4.50526C24.8812 4.77094 25.0305 5.13128 25.0305 5.507V30.2987C25.0305 30.6744 24.8812 31.0347 24.6155 31.3004C24.3499 31.5661 23.9895 31.7153 23.6138 31.7153Z" stroke="black" stroke-width="0.85" stroke-linecap="round" stroke-linejoin="round"/>
<path d="M18.8086 5.74561C19.102 5.74561 19.3398 5.50776 19.3398 5.21436C19.3398 4.92095 19.102 4.68311 18.8086 4.68311C18.5152 4.68311 18.2773 4.92095 18.2773 5.21436C18.2773 5.50776 18.5152 5.74561 18.8086 5.74561Z" fill="black"/>
<path d="M13.674 11.474H10.9795V14.1685M23.0212 14.1685V11.474H20.3267M20.3267 23.5157H23.0212V20.8212M10.9795 20.8212V23.5157H13.674M21.9948 4.09033H21.5677C21.4438 4.0903 21.3222 4.12272 21.2148 4.18436C21.1074 4.24601 21.0181 4.33472 20.9557 4.44167L20.2601 5.63592C20.1353 5.8498 19.9566 6.02723 19.7418 6.15052C19.527 6.27381 19.2837 6.33866 19.0361 6.33858H14.9646C14.7169 6.33866 14.4736 6.27381 14.2588 6.15052C14.0441 6.02723 13.8654 5.8498 13.7406 5.63592L13.045 4.44167C12.9826 4.33472 12.8932 4.24601 12.7859 4.18436C12.6785 4.12272 12.5568 4.0903 12.433 4.09033H12.0059M12.6228 18.279V21.8589H16.2027V18.279H12.6228ZM12.6228 13.1173V16.6972H16.2027V13.1173H12.6228ZM17.7845 13.1173V16.6972H21.3644V13.1173H17.7845ZM19.5815 21.8723C20.028 21.7881 20.4289 21.5453 20.7106 21.1888C21.1581 20.6736 21.3961 20.0094 21.3778 19.3273V18.279H17.7979V19.3273C17.7796 20.0094 18.0177 20.6736 18.4652 21.1888C18.7434 21.5426 19.1399 21.7851 19.5815 21.8723Z" stroke="black" stroke-width="0.425" stroke-linecap="round" stroke-linejoin="round"/>
</svg>
