<svg width="13" height="17" viewBox="0 0 13 17" fill="none" xmlns="http://www.w3.org/2000/svg">
<path fill-rule="evenodd" clip-rule="evenodd" d="M10.6557 2.00027C10.7949 2.00045 10.931 2.0379 11.0476 2.1081C11.1642 2.17829 11.2562 2.27821 11.3125 2.39573C11.3688 2.51325 11.387 2.64333 11.3648 2.7702C11.3426 2.89706 11.2811 3.01526 11.1876 3.11047L10.8041 3.50054H2.19592L1.81242 3.11047C1.71898 3.01533 1.65743 2.89722 1.63522 2.77044C1.61301 2.64367 1.63108 2.51367 1.68726 2.39618C1.74343 2.2787 1.83529 2.17877 1.95172 2.1085C2.06815 2.03823 2.20415 2.00064 2.34325 2.00027H10.6557ZM3.67358 5.00081L5.97458 7.33722C6.02532 7.38885 6.08719 7.43011 6.15622 7.45835C6.22525 7.4866 6.29991 7.50121 6.37542 7.50125H6.62458C6.70009 7.50121 6.77475 7.4866 6.84378 7.45835C6.91281 7.43011 6.97468 7.38885 7.02542 7.33722L9.3275 5.00081H3.67358ZM4.37992 7.94833L1.625 5.15083V7.00316C1.62511 7.12377 1.67244 7.24028 1.75825 7.33122L3.10917 8.76748C3.48232 8.43335 3.91096 8.15647 4.37883 7.94733M2.1255 10.0087L0.533 8.3154C0.18975 7.95164 0.000457157 7.4856 0 7.00316V2.50036C0 1.96983 0.228273 1.46103 0.634602 1.08589C1.04093 0.710751 1.59203 0.5 2.16667 0.5L10.8333 0.5C11.408 0.5 11.9591 0.710751 12.3654 1.08589C12.7717 1.46103 13 1.96983 13 2.50036V7.00316C13.0001 7.48535 12.8116 7.95135 12.4692 8.3154L10.8723 10.0097C11.2386 10.6959 11.4094 11.457 11.3685 12.221C11.3277 12.9851 11.0766 13.7269 10.6389 14.3765C10.2013 15.026 9.59154 15.5619 8.86725 15.9335C8.14296 16.305 7.32805 16.5 6.49946 16.5C5.67087 16.5 4.85596 16.305 4.13167 15.9335C3.40738 15.5619 2.79762 15.026 2.35997 14.3765C1.92232 13.7269 1.67122 12.9851 1.63038 12.221C1.58955 11.457 1.76032 10.6959 2.12658 10.0097M9.88975 8.76748C9.5166 8.43335 9.08796 8.15647 8.62008 7.94733L11.375 5.15083V7.00316C11.3749 7.12377 11.3276 7.24028 11.2418 7.33122L9.88975 8.76748ZM9.75 12.0021C9.75 12.7978 9.40759 13.561 8.7981 14.1238C8.1886 14.6865 7.36195 15.0026 6.5 15.0026C5.63805 15.0026 4.8114 14.6865 4.2019 14.1238C3.59241 13.561 3.25 12.7978 3.25 12.0021C3.25 11.2063 3.59241 10.4431 4.2019 9.88036C4.8114 9.31765 5.63805 9.00152 6.5 9.00152C7.36195 9.00152 8.1886 9.31765 8.7981 9.88036C9.40759 10.4431 9.75 11.2063 9.75 12.0021Z" fill="white"/>
</svg>
