<svg width="44" height="41" viewBox="0 0 44 41" fill="none" xmlns="http://www.w3.org/2000/svg">
<g clip-path="url(#clip0_321_4521)">
<path d="M26.8409 30.9693L16.7813 27.3079C16.4956 27.2039 16.2629 26.9906 16.1343 26.715C16.0058 26.4395 15.9921 26.1241 16.0961 25.8384L22.9584 6.98412C23.0625 6.69838 23.2757 6.46566 23.5513 6.33715C23.8269 6.20864 24.1422 6.19487 24.428 6.29887L34.4875 9.96025C34.7733 10.0643 35.006 10.2775 35.1345 10.5531C35.263 10.8287 35.2768 11.144 35.1728 11.4298L28.3104 30.284C28.2064 30.5698 27.9931 30.8025 27.7175 30.931C27.442 31.0595 27.1266 31.0733 26.8409 30.9693ZM27.5921 8.39124L29.5465 9.10257Z" fill="#F31515"/>
<path d="M27.5921 8.39124L29.5465 9.10257M26.8409 30.9693L16.7813 27.3079C16.4956 27.2039 16.2629 26.9906 16.1343 26.715C16.0058 26.4395 15.9921 26.1241 16.0961 25.8384L22.9584 6.98412C23.0625 6.69838 23.2757 6.46566 23.5513 6.33715C23.8269 6.20864 24.1422 6.19487 24.428 6.29887L34.4875 9.96025C34.7733 10.0643 35.006 10.2775 35.1345 10.5531C35.263 10.8287 35.2768 11.144 35.1728 11.4298L28.3104 30.284C28.2064 30.5698 27.9931 30.8025 27.7175 30.931C27.442 31.0595 27.1266 31.0733 26.8409 30.9693Z" stroke="black" stroke-width="0.687918" stroke-linecap="round" stroke-linejoin="round"/>
<path d="M30.3746 9.88917C30.5977 9.97039 30.8444 9.85534 30.9256 9.6322C31.0069 9.40907 30.8918 9.16235 30.6687 9.08113C30.4455 8.99992 30.1988 9.11497 30.1176 9.3381C30.0364 9.56124 30.1514 9.80796 30.3746 9.88917Z" fill="black"/>
<path d="M24.8843 12.8241L22.8351 12.0782L22.0892 14.1274M31.247 17.4606L31.9929 15.4114L29.9437 14.6655M26.6105 23.8233L28.6597 24.5692L29.4056 22.52M20.2478 19.1868L19.5019 21.236L21.5511 21.9818M33.2561 9.51195L32.9313 9.39372C32.8371 9.35941 32.7356 9.35039 32.6369 9.36755C32.5382 9.38471 32.4457 9.42745 32.3686 9.4915L31.509 10.2072C31.3549 10.3353 31.1699 10.4208 30.9724 10.4551C30.775 10.4894 30.572 10.4714 30.3837 10.4028L27.2873 9.27578C27.0989 9.20729 26.9318 9.09062 26.8026 8.93741C26.6734 8.7842 26.5866 8.5998 26.5509 8.40259L26.3525 7.30182C26.3346 7.20321 26.2912 7.11101 26.2266 7.03441C26.162 6.9578 26.0785 6.89947 25.9843 6.86522L25.6595 6.74699M22.2012 17.7083L21.2103 20.4309L23.9329 21.4218L24.9238 18.6992L22.2012 17.7083ZM23.63 13.7829L22.6391 16.5054L25.3616 17.4963L26.3525 14.7738L23.63 13.7829ZM27.5554 15.2116L26.5645 17.9342L29.2871 18.9251L30.278 16.2025L27.5554 15.2116ZM26.4987 22.3673C26.8616 22.4268 27.2337 22.3532 27.5466 22.16C28.0295 21.892 28.3944 21.4528 28.5693 20.929L28.8595 20.1317L26.1369 19.1408L25.8467 19.9381C25.644 20.4518 25.6412 21.0228 25.8389 21.5384C25.9526 21.8845 26.187 22.1787 26.4987 22.3673Z" stroke="black" stroke-width="0.343959" stroke-linecap="round" stroke-linejoin="round"/>
</g>
<g clip-path="url(#clip1_321_4521)">
<path d="M30.1088 27.3784L20.0492 31.0397C19.7635 31.1437 19.4481 31.13 19.1726 31.0014C18.897 30.8729 18.6837 30.6402 18.5797 30.3545L11.7173 11.5002C11.6133 11.2145 11.6271 10.8991 11.7556 10.6236C11.8841 10.348 12.1168 10.1347 12.4026 10.0307L22.4621 6.36934C22.7479 6.26534 23.0632 6.27911 23.3388 6.40762C23.6144 6.53613 23.8276 6.76885 23.9316 7.05459L30.794 25.9088C30.898 26.1946 30.8843 26.5099 30.7558 26.7855C30.6272 27.0611 30.3945 27.2743 30.1088 27.3784ZM16.1714 9.59968L18.1258 8.88835Z" fill="#E6CF03"/>
<path d="M16.1714 9.59968L18.1258 8.88835M30.1088 27.3784L20.0492 31.0397C19.7635 31.1437 19.4481 31.13 19.1726 31.0014C18.897 30.8729 18.6837 30.6402 18.5797 30.3545L11.7173 11.5002C11.6133 11.2145 11.6271 10.8991 11.7556 10.6236C11.8841 10.348 12.1168 10.1347 12.4026 10.0307L22.4621 6.36934C22.7479 6.26534 23.0632 6.27911 23.3388 6.40762C23.6144 6.53613 23.8276 6.76885 23.9316 7.05459L30.794 25.9088C30.898 26.1946 30.8843 26.5099 30.7558 26.7855C30.6272 27.0611 30.3945 27.2743 30.1088 27.3784Z" stroke="black" stroke-width="0.687918" stroke-linecap="round" stroke-linejoin="round"/>
<path d="M19.2655 8.95884C19.4886 8.87763 19.6037 8.6309 19.5225 8.40777C19.4413 8.18464 19.1945 8.06959 18.9714 8.1508C18.7483 8.23201 18.6332 8.47874 18.7144 8.70187C18.7956 8.925 19.0424 9.04005 19.2655 8.95884Z" fill="black"/>
<path d="M16.9465 14.7362L14.8973 15.482L15.6432 17.5312M24.8009 14.1981L24.0551 12.1489L22.0059 12.8947M25.3391 22.0525L27.3883 21.3066L26.6424 19.2575M17.4846 22.5906L18.2305 24.6398L20.2797 23.894M21.2307 6.81764L20.9059 6.93587C20.8117 6.97012 20.7282 7.02845 20.6636 7.10506C20.599 7.18166 20.5556 7.27386 20.5377 7.37247L20.3393 8.47324C20.3036 8.67045 20.2168 8.85485 20.0876 9.00806C19.9584 9.16127 19.7913 9.27794 19.6029 9.34643L16.5065 10.4734C16.3182 10.542 16.1152 10.5601 15.9178 10.5258C15.7203 10.4914 15.5353 10.406 15.3812 10.2779L14.5216 9.56216C14.4445 9.4981 14.352 9.45536 14.2533 9.4382C14.1546 9.42105 14.0531 9.43007 13.9589 9.46437L13.6341 9.5826M18.0307 20.2024L19.0216 22.9249L21.7442 21.934L20.7533 19.2114L18.0307 20.2024ZM16.602 16.2769L17.5929 18.9995L20.3155 18.0085L19.3245 15.286L16.602 16.2769ZM20.5274 14.8482L21.5184 17.5707L24.2409 16.5798L23.25 13.8572L20.5274 14.8482ZM24.3175 21.009C24.6337 20.8213 24.8715 20.5257 24.987 20.1766C25.1847 19.661 25.1819 19.0899 24.9791 18.5762L24.689 17.779L21.9664 18.7699L22.2566 19.5672C22.4315 20.091 22.7964 20.5302 23.2793 20.7982C23.5889 20.9902 23.9575 21.0648 24.3175 21.009Z" stroke="black" stroke-width="0.343959" stroke-linecap="round" stroke-linejoin="round"/>
</g>
<g clip-path="url(#clip2_321_4521)">
<path d="M31.82 23.7906L24.9389 31.9913C24.7434 32.2242 24.4634 32.3699 24.1605 32.3964C23.8576 32.4229 23.5565 32.328 23.3236 32.1326L7.95349 19.2355C7.72055 19.0401 7.5748 18.7601 7.5483 18.4571C7.52179 18.1542 7.61671 17.8532 7.81217 17.6202L14.6933 9.41962C14.8888 9.18669 15.1687 9.04094 15.4717 9.01443C15.7746 8.98793 16.0756 9.08285 16.3086 9.27831L31.6787 22.1754C31.9116 22.3708 32.0574 22.6508 32.0839 22.9537C32.1104 23.2567 32.0155 23.5577 31.82 23.7906ZM10.8605 15.3625L12.1974 13.7693Z" fill="#707070"/>
<path d="M10.8605 15.3625L12.1974 13.7693M31.82 23.7906L24.9389 31.9913C24.7434 32.2242 24.4634 32.3699 24.1605 32.3964C23.8576 32.4229 23.5565 32.328 23.3236 32.1326L7.95349 19.2355C7.72055 19.0401 7.5748 18.7601 7.5483 18.4571C7.52179 18.1542 7.61671 17.8532 7.81217 17.6202L14.6933 9.41962C14.8888 9.18669 15.1687 9.04094 15.4717 9.01443C15.7746 8.98793 16.0756 9.08285 16.3086 9.27831L31.6787 22.1754C31.9116 22.3708 32.0574 22.6508 32.0839 22.9537C32.1104 23.2567 32.0155 23.5577 31.82 23.7906Z" stroke="black" stroke-width="0.687918" stroke-linecap="round" stroke-linejoin="round"/>
<path d="M13.2202 13.2595C13.3729 13.0776 13.3491 12.8064 13.1672 12.6538C12.9853 12.5011 12.7142 12.5249 12.5615 12.7068C12.4089 12.8887 12.4326 13.1599 12.6145 13.3125C12.7964 13.4651 13.0676 13.4414 13.2202 13.2595Z" fill="black"/>
<path d="M14.1005 19.423L12.6988 21.0936L14.3693 22.4953M20.6336 15.0298L18.963 13.6281L17.5613 15.2986M25.0268 21.5629L26.4285 19.8924L24.758 18.4906M18.4937 25.9561L20.1642 27.3578L21.566 25.6873M13.8514 10.4233L13.6292 10.6881C13.5648 10.7648 13.5216 10.8571 13.504 10.9558C13.4863 11.0544 13.4948 11.156 13.5287 11.2503L13.9072 12.3028C13.9749 12.4914 13.992 12.6945 13.9567 12.8918C13.9214 13.0891 13.835 13.2737 13.7061 13.4272L11.5881 15.9514C11.4593 16.105 11.2925 16.2221 11.1043 16.2911C10.9162 16.3601 10.7132 16.3786 10.5157 16.3447L9.41342 16.1547C9.31465 16.1377 9.21317 16.147 9.11909 16.1815C9.02501 16.216 8.94162 16.2745 8.87723 16.3513L8.65503 16.6161M17.7725 23.6148L19.992 25.4771L21.8543 23.2577L19.6349 21.3953L17.7725 23.6148ZM14.5725 20.9296L16.7919 22.792L18.6542 20.5725L16.4348 18.7102L14.5725 20.9296ZM17.2576 17.7296L19.4771 19.5919L21.3394 17.3725L19.12 15.5101L17.2576 17.7296ZM23.6203 21.17C23.8004 20.8493 23.8584 20.4744 23.7839 20.1144C23.6973 19.5689 23.4094 19.0758 22.977 18.7323L22.327 18.1869L20.4647 20.4064L21.1146 20.9518C21.528 21.318 22.0636 21.5159 22.6158 21.5065C22.9799 21.518 23.3365 21.3983 23.6203 21.17Z" stroke="black" stroke-width="0.343959" stroke-linecap="round" stroke-linejoin="round"/>
</g>
<path d="M30.995 15.3529V26.0581C30.995 26.3621 30.8742 26.6538 30.6592 26.8688C30.4442 27.0838 30.1526 27.2046 29.8485 27.2046H9.78422C9.48015 27.2046 9.18852 27.0838 8.97351 26.8688C8.75849 26.6538 8.6377 26.3621 8.6377 26.0581V15.3529C8.6377 15.0488 8.75849 14.7572 8.97351 14.5422C9.18852 14.3272 9.48015 14.2064 9.78422 14.2064L29.8485 14.2064C30.1526 14.2064 30.4442 14.3272 30.6592 14.5422C30.8742 14.7572 30.995 15.0488 30.995 15.3529ZM9.52167 22.3691V20.2893Z" fill="#334F99"/>
<path d="M9.52167 22.3691V20.2893M30.995 15.3529V26.0581C30.995 26.3621 30.8742 26.6538 30.6592 26.8688C30.4442 27.0838 30.1526 27.2046 29.8485 27.2046H9.78422C9.48015 27.2046 9.18852 27.0838 8.97351 26.8688C8.75849 26.6538 8.6377 26.3621 8.6377 26.0581V15.3529C8.6377 15.0488 8.75849 14.7572 8.97351 14.5422C9.18852 14.3272 9.48015 14.2064 9.78422 14.2064L29.8485 14.2064C30.1526 14.2064 30.4442 14.3272 30.6592 14.5422C30.8742 14.7572 30.995 15.0488 30.995 15.3529Z" stroke="black" stroke-width="0.687918" stroke-linecap="round" stroke-linejoin="round"/>
<path d="M9.97708 19.2419C9.97708 19.0045 9.78459 18.812 9.54714 18.812C9.30968 18.812 9.11719 19.0045 9.11719 19.2419C9.11719 19.4794 9.30968 19.6719 9.54714 19.6719C9.78459 19.6719 9.97708 19.4794 9.97708 19.2419Z" fill="black"/>
<path d="M14.6134 23.3974V25.5781H16.7941M16.7941 15.8326H14.6134V18.0133M24.3589 18.0133V15.8326H22.1782M22.1782 25.5781H24.3589V23.3974M8.6377 16.6633V17.009C8.63767 17.1092 8.6639 17.2076 8.71379 17.2945C8.76368 17.3815 8.83548 17.4538 8.92203 17.5043L9.88856 18.0672C10.0617 18.1682 10.2053 18.3128 10.305 18.4867C10.4048 18.6605 10.4573 18.8574 10.4572 19.0578V22.3529C10.4573 22.5534 10.4048 22.7503 10.305 22.9241C10.2053 23.0979 10.0617 23.2425 9.88856 23.3435L8.92203 23.9065C8.83548 23.957 8.76368 24.0293 8.71379 24.1162C8.6639 24.2031 8.63767 24.3016 8.6377 24.4018V24.7475M20.1208 24.2482H23.018V21.3509H20.1208V24.2482ZM15.9434 24.2482H18.8407V21.3509H15.9434V24.2482ZM15.9434 20.0708H18.8407V17.1735H15.9434V20.0708ZM23.0289 18.6164C22.9607 18.2551 22.7643 17.9305 22.4757 17.7026C22.0588 17.3405 21.5212 17.1478 20.9692 17.1626H20.1208V20.0599H20.9692C21.5212 20.0747 22.0588 19.882 22.4757 19.5199C22.7621 19.2946 22.9583 18.9738 23.0289 18.6164Z" stroke="black" stroke-width="0.343959" stroke-linecap="round" stroke-linejoin="round"/>
<defs>
<clipPath id="clip0_321_4521">
<rect width="27.5167" height="27.5167" fill="white" transform="translate(17.4111 1) rotate(20)"/>
</clipPath>
<clipPath id="clip1_321_4521">
<rect width="27.5167" height="27.5167" fill="white" transform="translate(3.62109 10.4819) rotate(-20)"/>
</clipPath>
<clipPath id="clip2_321_4521">
<rect width="27.5167" height="27.5167" fill="white" transform="translate(0.432617 22.4009) rotate(-50)"/>
</clipPath>
</defs>
</svg>
