<svg width="40" height="40" viewBox="0 0 40 40" fill="none" xmlns="http://www.w3.org/2000/svg">
<path fill-rule="evenodd" clip-rule="evenodd" d="M26.611 16.2778C26.611 17.6348 26.3438 18.9785 25.8245 20.2322C25.3052 21.4859 24.544 22.625 23.5845 23.5845C22.6249 24.5441 21.4858 25.3052 20.2321 25.8245C18.9784 26.3438 17.6347 26.6111 16.2777 26.6111C14.9207 26.6111 13.577 26.3438 12.3233 25.8245C11.0696 25.3052 9.93049 24.5441 8.97095 23.5845C8.01141 22.625 7.25026 21.4859 6.73096 20.2322C6.21166 18.9785 5.94439 17.6348 5.94439 16.2778C5.94439 13.5372 7.03307 10.9089 8.97095 8.97101C10.9088 7.03313 13.5371 5.94444 16.2777 5.94444C19.0183 5.94444 21.6466 7.03313 23.5845 8.97101C25.5224 10.9089 26.611 13.5372 26.611 16.2778ZM25.2574 28.912C22.0898 31.1641 18.1917 32.144 14.3356 31.6575C10.4796 31.171 6.94705 29.2535 4.4381 26.2852C1.92914 23.3169 0.626901 19.5143 0.789452 15.6311C0.952004 11.7479 2.56749 8.06749 5.31573 5.31924C8.06398 2.57099 11.7444 0.955506 15.6276 0.792954C19.5108 0.630403 23.3134 1.93265 26.2817 4.4416C29.25 6.95055 31.1674 10.4831 31.654 14.3391C32.1405 18.1952 31.1606 22.0933 28.9085 25.2609L37.9088 34.2578C38.1626 34.4943 38.3662 34.7795 38.5074 35.0964C38.6486 35.4132 38.7245 35.7553 38.7306 36.1022C38.7368 36.4491 38.673 36.7936 38.543 37.1153C38.4131 37.4369 38.2197 37.7292 37.9744 37.9745C37.7291 38.2198 37.4369 38.4132 37.1152 38.5431C36.7935 38.673 36.449 38.7368 36.1021 38.7307C35.7553 38.7246 35.4132 38.6487 35.0963 38.5075C34.7794 38.3663 34.4942 38.1627 34.2577 37.9089L25.2574 28.912Z" fill="black"/>
</svg>
