<svg width="32" height="26" viewBox="0 0 32 26" fill="none" xmlns="http://www.w3.org/2000/svg">
<path d="M20.8225 13.5114H24.8069C25.8415 13.4901 26.8546 13.7112 27.67 14.1364C28.48 14.5677 29.0406 15.1727 29.26 15.8489L30.9437 21.9614C31.0187 22.1789 31.0187 22.4052 30.9437 22.6239C30.8674 22.8412 30.713 23.0428 30.4937 23.2114C30.2849 23.3851 30.0159 23.5223 29.71 23.6114C29.4043 23.7064 29.0725 23.7539 28.735 23.7489C28.2212 23.758 27.7186 23.6475 27.3137 23.4364C26.9009 23.2323 26.6147 22.9343 26.5094 22.5989L25.2006 17.4989H21.8688" stroke="white" stroke-width="1.5" stroke-linecap="round" stroke-linejoin="round"/>
<path d="M8.75325 10.9989C-2.73481 12.9364 -1.12607 24.5989 11.3914 24.7489C20.0538 24.8239 24.49 17.9864 20.0163 13.7364" stroke="white" stroke-width="1.5" stroke-linecap="round" stroke-linejoin="round"/>
<path d="M20.3726 8.76135V14.1238C19.0421 12.6224 16.9108 11.5109 14.4045 11.0113V16.7113C14.406 16.9073 14.3495 17.1016 14.2384 17.2831C14.1273 17.4645 13.9636 17.6296 13.7568 17.7689C13.5499 17.9082 13.3039 18.019 13.0329 18.0949C12.7618 18.1708 12.471 18.2104 12.177 18.2113C11.8817 18.2115 11.5893 18.1728 11.3165 18.0974C11.0438 18.0221 10.796 17.9115 10.5875 17.7721C10.3789 17.6328 10.2137 17.4673 10.1014 17.2853C9.989 17.1032 9.93166 16.9082 9.93265 16.7113L8.80953 11.2363C8.72532 10.7877 8.82523 10.3321 9.09863 9.91831C9.37202 9.50448 9.80865 9.14783 10.362 8.88635L13.3564 7.47385C15.6945 6.27385 20.3726 6.44885 20.3726 8.76135Z" stroke="white" stroke-width="1.5" stroke-linecap="round" stroke-linejoin="round"/>
<path d="M18.2407 6.69886C19.0855 6.69936 19.9114 6.53227 20.6132 6.21884C21.3151 5.90542 21.8612 5.45985 22.1819 4.93886C22.5053 4.41823 22.5898 3.84539 22.425 3.29273C22.2601 2.74007 21.8532 2.23239 21.2557 1.83386C20.659 1.43557 19.8985 1.16435 19.0703 1.05458C18.2422 0.944804 17.3838 1.00142 16.604 1.21724C15.8242 1.43306 15.1581 1.79837 14.6901 2.26687C14.2221 2.73537 13.9732 3.28597 13.9751 3.84886C13.9751 4.60386 14.4251 5.32886 15.2257 5.86386C15.6211 6.12848 16.091 6.33845 16.6084 6.48174C17.1257 6.62503 17.6805 6.69881 18.2407 6.69886Z" stroke="white" stroke-width="1.5" stroke-linecap="round" stroke-linejoin="round"/>
</svg>
