<svg width="65" height="66" viewBox="0 0 65 66" fill="none" xmlns="http://www.w3.org/2000/svg">
<g clip-path="url(#clip0_337_940)">
<g clip-path="url(#clip1_337_940)">
<path d="M16.8137 32.5C16.8137 28.3397 18.4663 24.3499 21.4081 21.4081C24.3498 18.4664 28.3397 16.8137 32.4999 16.8137C36.6602 16.8137 40.6501 18.4664 43.5918 21.4081C46.5336 24.3499 48.1862 28.3397 48.1862 32.5C48.1862 36.6603 46.5336 40.6501 43.5918 43.5919C40.6501 46.5336 36.6602 48.1863 32.4999 48.1863C28.3397 48.1863 24.3498 46.5336 21.4081 43.5919C18.4663 40.6501 16.8137 36.6603 16.8137 32.5ZM32.4999 12.8922C21.6705 12.8922 12.8921 21.6706 12.8921 32.5C12.8921 43.3294 21.6705 52.1078 32.4999 52.1078C43.3293 52.1078 52.1078 43.3294 52.1078 32.5C52.1078 21.6706 43.3293 12.8922 32.4999 12.8922ZM32.4999 25.6373C32.8862 25.6373 33.2686 25.5612 33.6255 25.4134C33.9823 25.2656 34.3065 25.0489 34.5797 24.7758C34.8528 24.5027 35.0694 24.1785 35.2172 23.8216C35.365 23.4648 35.4411 23.0823 35.4411 22.6961C35.4411 22.3098 35.365 21.9274 35.2172 21.5705C35.0694 21.2137 34.8528 20.8895 34.5797 20.6164C34.3065 20.3432 33.9823 20.1266 33.6255 19.9788C33.2686 19.831 32.8862 19.7549 32.4999 19.7549C31.7199 19.7549 30.9718 20.0648 30.4202 20.6164C29.8686 21.1679 29.5588 21.916 29.5588 22.6961C29.5588 23.4761 29.8686 24.2242 30.4202 24.7758C30.9718 25.3274 31.7199 25.6373 32.4999 25.6373ZM32.4999 27.598C29.447 27.598 26.2686 26.898 23.4235 25.7765L21.9705 29.4216C24.0803 30.2627 26.3391 30.8294 28.5784 31.1882C28.5784 32.8941 28.747 34.6471 27.9588 36.2216L24.8646 42.4098L28.3744 44.1627L31.4176 38.0745C31.5181 37.873 31.6728 37.7035 31.8644 37.585C32.0559 37.4665 32.2767 37.4037 32.5019 37.4037C32.7271 37.4037 32.9479 37.4665 33.1394 37.585C33.3309 37.7035 33.4857 37.873 33.5862 38.0745L36.6293 44.1627L40.1391 42.4098L37.045 36.2216C36.2548 34.6451 36.4215 32.8922 36.4215 31.1863C38.6727 30.8336 40.8804 30.244 43.0078 29.4275C43.0568 29.4078 41.5764 25.7765 41.5705 25.7804C38.7215 26.8902 35.5568 27.598 32.4999 27.598Z" fill="black"/>
</g>
</g>
<defs>
<clipPath id="clip0_337_940">
<rect width="49" height="40" fill="white" transform="translate(8 12.5)"/>
</clipPath>
<clipPath id="clip1_337_940">
<rect width="40" height="40" fill="white" transform="translate(12.5 12.5)"/>
</clipPath>
</defs>
</svg>
