<svg width="18" height="17" viewBox="0 0 18 17" fill="none" xmlns="http://www.w3.org/2000/svg">
<path d="M15.4 7.04558C15.4 6.9262 15.3741 6.80798 15.3239 6.69769C15.2736 6.58739 15.2 6.48717 15.1071 6.40276C15.0142 6.31834 14.904 6.25138 14.7827 6.20569C14.6613 6.16 14.5313 6.13649 14.4 6.13649C14.2687 6.13649 14.1386 6.16 14.0173 6.20569C13.896 6.25138 13.7857 6.31834 13.6929 6.40276C13.6 6.48717 13.5264 6.58739 13.4761 6.69769C13.4258 6.80798 13.4 6.9262 13.4 7.04558H15.4ZM4.19999 7.04558C4.19999 6.80447 4.09463 6.57324 3.90709 6.40276C3.71956 6.23227 3.4652 6.13649 3.19999 6.13649C2.93477 6.13649 2.68041 6.23227 2.49288 6.40276C2.30534 6.57324 2.19999 6.80447 2.19999 7.04558H4.19999ZM15.2928 9.14303C15.4803 9.31354 15.7347 9.40934 16 9.40934C16.2652 9.40934 16.5196 9.31354 16.7072 9.14303C16.8947 8.97252 17.0001 8.74126 17.0001 8.50012C17.0001 8.25899 16.8947 8.02773 16.7072 7.85722L15.2928 9.14303ZM8.79999 1.95467L9.50719 1.31176C9.41432 1.22732 9.30407 1.16033 9.18273 1.11463C9.06139 1.06893 8.93133 1.04541 8.79999 1.04541C8.66864 1.04541 8.53858 1.06893 8.41724 1.11463C8.2959 1.16033 8.18565 1.22732 8.09279 1.31176L8.79999 1.95467ZM0.892785 7.85722C0.705224 8.02773 0.599854 8.25899 0.599854 8.50012C0.599854 8.74126 0.705224 8.97252 0.892785 9.14303C1.08035 9.31354 1.33473 9.40934 1.59999 9.40934C1.86524 9.40934 2.11962 9.31354 2.30719 9.14303L0.892785 7.85722ZM4.79999 15.9547H12.8V14.1365H4.79999V15.9547ZM15.4 13.591V7.04558H13.4V13.591H15.4ZM4.19999 13.591V7.04558H2.19999V13.591H4.19999ZM16.7072 7.85722L9.50719 1.31176L8.09279 2.59758L15.2928 9.14303L16.7072 7.85722ZM8.09279 1.31176L0.892785 7.85722L2.30719 9.14303L9.50719 2.59758L8.09279 1.31176ZM12.8 15.9547C13.4895 15.9547 14.1509 15.7056 14.6385 15.2624C15.1261 14.8191 15.4 14.2179 15.4 13.591H13.4C13.4 13.7357 13.3368 13.8744 13.2242 13.9767C13.1117 14.079 12.9591 14.1365 12.8 14.1365V15.9547ZM4.79999 14.1365C4.64086 14.1365 4.48824 14.079 4.37572 13.9767C4.2632 13.8744 4.19999 13.7357 4.19999 13.591H2.19999C2.19999 14.2179 2.47391 14.8191 2.96151 15.2624C3.4491 15.7056 4.11042 15.9547 4.79999 15.9547V14.1365Z" fill="white"/>
</svg>
