<svg width="32" height="33" viewBox="0 0 32 33" fill="none" xmlns="http://www.w3.org/2000/svg">
<path d="M21.625 2.28076V4.53076C21.625 6.65176 21.625 7.71226 22.45 8.37076C23.2712 9.03076 24.5969 9.03076 27.25 9.03076H30.0625" stroke="white" stroke-width="1.5" stroke-linecap="round" stroke-linejoin="round"/>
<path d="M8.5 15.0308H23.5M8.5 19.5308H23.5M8.5 24.0308H16.3188M1 22.5308V10.5308C1 6.28876 1 4.16626 2.64813 2.84926C4.29438 1.53076 6.9475 1.53076 12.25 1.53076H20.0725C20.8375 1.53076 21.2219 1.53076 21.5669 1.64476C21.91 1.75876 22.1819 1.97476 22.7238 2.40976L29.9012 8.15176C30.445 8.58676 30.715 8.80276 30.8575 9.07876C31 9.35326 31 9.66076 31 10.2728V22.5308C31 26.7728 31 28.8953 29.3519 30.2123C27.7056 31.5308 25.0525 31.5308 19.75 31.5308H12.25C6.9475 31.5308 4.29438 31.5308 2.64813 30.2123C1 28.8953 1 26.7728 1 22.5308Z" stroke="white" stroke-width="1.5" stroke-linecap="round" stroke-linejoin="round"/>
</svg>
