<svg width="62" height="62" viewBox="0 0 62 62" fill="none" xmlns="http://www.w3.org/2000/svg">
<circle cx="31" cy="31" r="29" fill="white" stroke="url(#paint0_angular_480_5539)" stroke-width="4"/>
<g clip-path="url(#clip0_480_5539)">
<path d="M36.8381 45.3333L31.2381 42.0381L25.6381 45.3333L27.1238 38.9714L22.1905 34.7048L28.6857 34.1524L31.2381 28.1905L33.7905 34.1524L40.2857 34.7048L35.3524 38.9714M46.4762 12H16V15.8095L25.2572 22.7429C22.0275 24.1211 19.3729 26.5725 17.7424 29.6825C16.1119 32.7925 15.6055 36.3702 16.3089 39.8105C17.0122 43.2508 18.8822 46.3426 21.6026 48.563C24.3229 50.7835 27.7266 51.9962 31.2381 51.9962C34.7496 51.9962 38.1533 50.7835 40.8737 48.563C43.594 46.3426 45.464 43.2508 46.1674 39.8105C46.8708 36.3702 46.3644 32.7925 44.7339 29.6825C43.1033 26.5725 40.4488 24.1211 37.2191 22.7429L46.4762 15.8095M42.6667 36.7619C42.6677 38.9262 42.0541 41.0464 40.8973 42.8756C39.7405 44.7049 38.0881 46.168 36.1323 47.0949C34.1764 48.0217 31.9976 48.3742 29.8493 48.1112C27.701 47.8481 25.6716 46.9805 23.9971 45.6092C22.3226 44.2379 21.0719 42.4193 20.3906 40.365C19.7093 38.3107 19.6253 36.1052 20.1484 34.005C20.6715 31.9049 21.7802 29.9964 23.3455 28.5017C24.9109 27.007 26.8684 25.9876 28.9905 25.5619C30.4736 25.2592 32.0026 25.2592 33.4857 25.5619C36.0742 26.0811 38.403 27.4804 40.0766 29.5221C41.7503 31.5638 42.6654 34.1219 42.6667 36.7619ZM32.4381 21.5238H30.0381L22.4191 15.8095H40.2095L32.4381 21.5238Z" fill="black"/>
</g>
<defs>
<radialGradient id="paint0_angular_480_5539" cx="0" cy="0" r="1" gradientUnits="userSpaceOnUse" gradientTransform="translate(31 31) rotate(90) scale(27)">
<stop offset="0.38" stop-opacity="0"/>
<stop offset="1" stop-color="#666666"/>
</radialGradient>
<clipPath id="clip0_480_5539">
<rect width="30.4762" height="40" fill="white" transform="translate(16 12)"/>
</clipPath>
</defs>
</svg>
